<svg xmlns="http://www.w3.org/2000/svg" xmlns:xlink="http://www.w3.org/1999/xlink" width="645" height="400" viewBox="0 0 645 400">
  <defs>
    <clipPath id="clip-Mod1">
      <rect width="645" height="400"/>
    </clipPath>
  </defs>
  <g id="Mod1" clip-path="url(#clip-Mod1)">
    <rect width="645" height="400" fill="#262a33"/>
    <circle id="Elipse_1" data-name="Elipse 1" cx="12.5" cy="12.5" r="12.5" transform="translate(27 23)" fill="#d9515d"/>
    <circle id="Elipse_2" data-name="Elipse 2" cx="12.5" cy="12.5" r="12.5" transform="translate(63 23)" fill="#f4c025"/>
    <circle id="Elipse_3" data-name="Elipse 3" cx="12.5" cy="12.5" r="12.5" transform="translate(99 23)" fill="#3ec930"/>
    <path id="Trazado_10" data-name="Trazado 10" d="M-134.839-44.673-150.015,0h-8.2l-14.834-44.673h6.87l9.639,30.112,2.734,8.818,2.8-8.818,9.673-30.112ZM-107.187,0l-.137-4.614a18.6,18.6,0,0,1-5.691,4,15.321,15.321,0,0,1-6.067,1.23,14.864,14.864,0,0,1-5.024-.752A9.414,9.414,0,0,1-127.542-2.2,8.016,8.016,0,0,1-129.524-5.3a11.444,11.444,0,0,1-.632-3.862,9.586,9.586,0,0,1,3.845-8.083q3.845-2.922,11.365-2.922h7.109v-3.008a6.364,6.364,0,0,0-1.948-4.871q-1.948-1.829-5.947-1.829a25.428,25.428,0,0,0-5.725.649,40.242,40.242,0,0,0-5.828,1.846v-5.366q1.128-.41,2.512-.8t2.922-.7q1.538-.308,3.213-.5a30.314,30.314,0,0,1,3.384-.188,21.221,21.221,0,0,1,5.605.684,11.367,11.367,0,0,1,4.221,2.085,9.175,9.175,0,0,1,2.649,3.521,12.424,12.424,0,0,1,.923,4.99V0Zm-.649-15.62h-7.554a14.483,14.483,0,0,0-3.828.444,7.266,7.266,0,0,0-2.632,1.265,5.075,5.075,0,0,0-1.521,1.965,6.435,6.435,0,0,0-.5,2.581,5.858,5.858,0,0,0,.308,1.9,4.219,4.219,0,0,0,.991,1.606,4.784,4.784,0,0,0,1.777,1.111,7.625,7.625,0,0,0,2.666.41,11.272,11.272,0,0,0,4.7-1.248,22.962,22.962,0,0,0,5.588-3.948Zm18.491-18.7h5.435l.171,6.323a22.028,22.028,0,0,1,6-5.3,12.18,12.18,0,0,1,5.964-1.641q5.332,0,8.083,3.452t2.546,10.254h-6.016q.1-4.512-1.316-6.545A4.742,4.742,0,0,0-72.632-29.8a7.219,7.219,0,0,0-2.41.427,9.736,9.736,0,0,0-2.5,1.367,22.352,22.352,0,0,0-2.717,2.41,44.49,44.49,0,0,0-3.076,3.555V0h-6.016Zm48.774,4.922H-50.723v-4.922h16.167v29.36h10.22V0H-51.851V-4.956h11.279Zm2.085-19.312a4.718,4.718,0,0,1,1.846.359,4.465,4.465,0,0,1,1.487,1.008,4.853,4.853,0,0,1,.991,1.487,4.593,4.593,0,0,1,.359,1.829,4.63,4.63,0,0,1-.359,1.812,4.8,4.8,0,0,1-.991,1.5A4.465,4.465,0,0,1-36.641-39.7a4.718,4.718,0,0,1-1.846.359,4.718,4.718,0,0,1-1.846-.359,4.465,4.465,0,0,1-1.487-1.008,4.8,4.8,0,0,1-.991-1.5,4.63,4.63,0,0,1-.359-1.812,4.593,4.593,0,0,1,.359-1.829,4.853,4.853,0,0,1,.991-1.487,4.465,4.465,0,0,1,1.487-1.008A4.718,4.718,0,0,1-38.486-48.706ZM8.271,0,8.135-4.614a18.6,18.6,0,0,1-5.691,4A15.321,15.321,0,0,1-3.623.615,14.864,14.864,0,0,1-8.647-.137,9.414,9.414,0,0,1-12.083-2.2,8.016,8.016,0,0,1-14.065-5.3,11.444,11.444,0,0,1-14.7-9.16a9.586,9.586,0,0,1,3.845-8.083Q-7.007-20.166.513-20.166H7.622v-3.008a6.364,6.364,0,0,0-1.948-4.871Q3.726-29.873-.273-29.873A25.428,25.428,0,0,0-6-29.224a40.242,40.242,0,0,0-5.828,1.846v-5.366q1.128-.41,2.512-.8t2.922-.7q1.538-.308,3.213-.5a30.314,30.314,0,0,1,3.384-.188,21.221,21.221,0,0,1,5.605.684,11.367,11.367,0,0,1,4.221,2.085,9.175,9.175,0,0,1,2.649,3.521,12.424,12.424,0,0,1,.923,4.99V0ZM7.622-15.62H.068a14.483,14.483,0,0,0-3.828.444,7.266,7.266,0,0,0-2.632,1.265,5.075,5.075,0,0,0-1.521,1.965,6.435,6.435,0,0,0-.5,2.581,5.858,5.858,0,0,0,.308,1.9,4.219,4.219,0,0,0,.991,1.606A4.784,4.784,0,0,0-5.332-4.751a7.625,7.625,0,0,0,2.666.41,11.272,11.272,0,0,0,4.7-1.248A22.962,22.962,0,0,0,7.622-9.536Zm46.416-2.153a23.031,23.031,0,0,1-1.179,7.639,16.1,16.1,0,0,1-3.35,5.708A14.4,14.4,0,0,1,44.229-.837,18.683,18.683,0,0,1,37.222.41,34.557,34.557,0,0,1,31-.171a31.894,31.894,0,0,1-6.289-1.846V-48.3h5.947V-35l-.273,6.357a15.436,15.436,0,0,1,5.486-4.871,14.175,14.175,0,0,1,6.272-1.418A10.479,10.479,0,0,1,47.3-33.7a10.711,10.711,0,0,1,3.726,3.469,16.412,16.412,0,0,1,2.256,5.4A30.553,30.553,0,0,1,54.038-17.773Zm-6.084.273a28.949,28.949,0,0,0-.393-4.956,12.932,12.932,0,0,0-1.248-3.862,6.854,6.854,0,0,0-2.187-2.512,5.519,5.519,0,0,0-3.179-.906,7.733,7.733,0,0,0-2.29.359,9.287,9.287,0,0,0-2.41,1.2,17.952,17.952,0,0,0-2.632,2.222,35,35,0,0,0-2.957,3.435V-5.879A23.193,23.193,0,0,0,34.214-4.8a16.291,16.291,0,0,0,3.452.393,11.8,11.8,0,0,0,3.914-.649,8.081,8.081,0,0,0,3.281-2.17,10.857,10.857,0,0,0,2.256-4.033A19.953,19.953,0,0,0,47.954-17.5ZM74.888-43.408H64.736V-48.3H80.9v43.34h10.22V0H63.608V-4.956H74.888ZM130.669-18.97q0,1.265-.034,2.119t-.1,1.606h-24.1q0,5.264,2.939,8.083t8.477,2.82q1.5,0,3.008-.12t2.905-.325q1.4-.205,2.683-.461t2.375-.564V-.923A41.518,41.518,0,0,1,123.337.188,45.807,45.807,0,0,1,117,.615a21.56,21.56,0,0,1-7.588-1.2A12.987,12.987,0,0,1,104.2-4.05a14.284,14.284,0,0,1-3.008-5.571,26.366,26.366,0,0,1-.974-7.468,22.177,22.177,0,0,1,1.042-6.853,17.2,17.2,0,0,1,3.042-5.674,14.623,14.623,0,0,1,4.9-3.879,14.7,14.7,0,0,1,6.6-1.436,16.744,16.744,0,0,1,6.357,1.128,12.766,12.766,0,0,1,4.666,3.2,13.625,13.625,0,0,1,2.871,5.024A21.063,21.063,0,0,1,130.669-18.97Zm-6.187-.854a12.965,12.965,0,0,0-.444-4.187,8.813,8.813,0,0,0-1.692-3.264,7.88,7.88,0,0,0-2.854-2.136,9.579,9.579,0,0,0-3.965-.769,8.281,8.281,0,0,0-3.555.752A8.107,8.107,0,0,0,109.2-27.31a10.947,10.947,0,0,0-1.88,3.281,15.129,15.129,0,0,0-.889,4.2ZM167.344-9.365a8.169,8.169,0,0,1-.615,3.247,8.518,8.518,0,0,1-1.675,2.546,10.419,10.419,0,0,1-2.461,1.9,16.361,16.361,0,0,1-2.991,1.3,19.676,19.676,0,0,1-3.264.752,23.187,23.187,0,0,1-3.281.239,61.5,61.5,0,0,1-6.409-.308,43.232,43.232,0,0,1-5.725-.991V-6.152a47.641,47.641,0,0,0,5.981,1.3,39.963,39.963,0,0,0,5.913.444,13.267,13.267,0,0,0,6.323-1.162,3.635,3.635,0,0,0,2.051-3.315,4.06,4.06,0,0,0-.325-1.658,3.766,3.766,0,0,0-1.179-1.4,11.271,11.271,0,0,0-2.649-1.384q-1.794-.718-4.9-1.641a34.814,34.814,0,0,1-4.29-1.555,14.383,14.383,0,0,1-3.4-2.068,8.88,8.88,0,0,1-2.256-2.8,8.243,8.243,0,0,1-.82-3.794,8.718,8.718,0,0,1,.667-3.145,8.545,8.545,0,0,1,2.273-3.179,12.649,12.649,0,0,1,4.341-2.444,20.587,20.587,0,0,1,6.836-.974q2.017,0,4.478.222a46.239,46.239,0,0,1,5.127.769v5.3a49.016,49.016,0,0,0-5.315-1.008,34.631,34.631,0,0,0-4.358-.325,17.39,17.39,0,0,0-3.743.342,7.766,7.766,0,0,0-2.461.94,3.669,3.669,0,0,0-1.35,1.4,3.741,3.741,0,0,0-.41,1.726,3.839,3.839,0,0,0,.359,1.675,4.008,4.008,0,0,0,1.333,1.453,13.138,13.138,0,0,0,2.717,1.4q1.743.7,4.546,1.521a36.362,36.362,0,0,1,5.127,1.863,13.233,13.233,0,0,1,3.384,2.17,7,7,0,0,1,1.863,2.7A9.687,9.687,0,0,1,167.344-9.365Z" transform="translate(323 168)" fill="#62c462"/>
    <path id="icons8-control-panel" d="M10.364,4A6.411,6.411,0,0,0,4,10.364V67.636A6.411,6.411,0,0,0,10.364,74H67.636A6.411,6.411,0,0,0,74,67.636V10.364A6.411,6.411,0,0,0,67.636,4Zm0,6.364H67.636V67.636H10.364Zm9.545,6.364a3.183,3.183,0,0,0-3.182,3.182V32.636a3.183,3.183,0,0,0,3.182,3.182H32.636a3.183,3.183,0,0,0,3.182-3.182V19.909a3.183,3.183,0,0,0-3.182-3.182Zm25.455,0a3.183,3.183,0,0,0-3.182,3.182V32.636a3.183,3.183,0,0,0,3.182,3.182H58.091a3.183,3.183,0,0,0,3.182-3.182V19.909a3.183,3.183,0,0,0-3.182-3.182ZM19.909,42.182a3.183,3.183,0,0,0-3.182,3.182V58.091a3.183,3.183,0,0,0,3.182,3.182H32.636a3.183,3.183,0,0,0,3.182-3.182V45.364a3.183,3.183,0,0,0-3.182-3.182Zm25.455,0a3.183,3.183,0,0,0-3.182,3.182V58.091a3.183,3.183,0,0,0,3.182,3.182H58.091a3.183,3.183,0,0,0,3.182-3.182V45.364a3.183,3.183,0,0,0-3.182-3.182Z" transform="translate(284 206)" fill="#62c462"/>
  </g>
</svg>
