<svg xmlns="http://www.w3.org/2000/svg" xmlns:xlink="http://www.w3.org/1999/xlink" width="645" height="400" viewBox="0 0 645 400"><defs><clipPath id="b"><rect width="645" height="400"/></clipPath></defs><g id="a" clip-path="url(#b)"><rect width="645" height="400" fill="#262a33"/><circle cx="12.5" cy="12.5" r="12.5" transform="translate(27 23)" fill="#d9515d"/><circle cx="12.5" cy="12.5" r="12.5" transform="translate(63 23)" fill="#f4c025"/><circle cx="12.5" cy="12.5" r="12.5" transform="translate(99 23)" fill="#3ec930"/><path d="M-216.152-1.675A29.111,29.111,0,0,1-227.4.547q-9.468,0-14.543-5.657t-5.076-16.731a31.5,31.5,0,0,1,1.4-9.707,21.1,21.1,0,0,1,4-7.366,17.607,17.607,0,0,1,6.289-4.666,20.152,20.152,0,0,1,8.271-1.641,29.648,29.648,0,0,1,5.776.53,24.194,24.194,0,0,1,5.127,1.624v5.981a22.672,22.672,0,0,0-5.024-2.034,21.741,21.741,0,0,0-5.674-.7,13.383,13.383,0,0,0-5.691,1.179,11.774,11.774,0,0,0-4.324,3.418,16,16,0,0,0-2.734,5.469,25.947,25.947,0,0,0-.957,7.366q0,8.682,3.521,13.091t10.322,4.409a22.333,22.333,0,0,0,5.5-.667,25.651,25.651,0,0,0,5.059-1.863Zm39.819-15.757a22.75,22.75,0,0,1-1.128,7.332,16.31,16.31,0,0,1-3.247,5.708A14.567,14.567,0,0,1-185.869-.7a17.234,17.234,0,0,1-6.9,1.316A18.013,18.013,0,0,1-199.387-.53,13.085,13.085,0,0,1-204.343-3.9a14.9,14.9,0,0,1-3.11-5.5,24.222,24.222,0,0,1-1.077-7.554,22.44,22.44,0,0,1,1.128-7.3,16.36,16.36,0,0,1,3.247-5.674,14.567,14.567,0,0,1,5.161-3.691,17.234,17.234,0,0,1,6.9-1.316,18.013,18.013,0,0,1,6.614,1.145,13.177,13.177,0,0,1,4.956,3.35,14.734,14.734,0,0,1,3.11,5.486A24.1,24.1,0,0,1-176.333-17.432Zm-6.084.273a19.715,19.715,0,0,0-.7-5.554,11.187,11.187,0,0,0-2-3.965,8.248,8.248,0,0,0-3.162-2.393,10.384,10.384,0,0,0-4.153-.8,9.345,9.345,0,0,0-4.563,1.042,9.035,9.035,0,0,0-3.11,2.786,12,12,0,0,0-1.777,4.05,20.3,20.3,0,0,0-.564,4.836,19.9,19.9,0,0,0,.7,5.571,11.176,11.176,0,0,0,2,3.982A8.278,8.278,0,0,0-196.6-5.212a10.351,10.351,0,0,0,4.17.8,9.345,9.345,0,0,0,4.563-1.042,9.035,9.035,0,0,0,3.11-2.786,12,12,0,0,0,1.777-4.05A20.45,20.45,0,0,0-182.417-17.158Zm14.7-17.158h5.3l.239,5.537a24.776,24.776,0,0,1,2.905-2.957,15.931,15.931,0,0,1,2.751-1.9,10.3,10.3,0,0,1,2.751-1.008,14.278,14.278,0,0,1,2.905-.291q5.3,0,8.015,3.127t2.717,9.417V0h-5.947V-21.909q0-4.033-1.5-5.964a5.326,5.326,0,0,0-4.478-1.931,7.143,7.143,0,0,0-2.136.325,7.786,7.786,0,0,0-2.17,1.128,17.92,17.92,0,0,0-2.444,2.17q-1.316,1.367-2.957,3.418V0h-5.947Zm36.743,17.876a23.37,23.37,0,0,1,1.2-7.776,15.984,15.984,0,0,1,3.4-5.742,14.392,14.392,0,0,1,5.3-3.555,18.717,18.717,0,0,1,6.887-1.213,25.215,25.215,0,0,1,3.23.205,20.879,20.879,0,0,1,3.127.649V-48.3h5.981V0h-5.332l-.205-6.494a17.983,17.983,0,0,1-5.4,5.366A12.007,12.007,0,0,1-119.082.615a10.577,10.577,0,0,1-5.178-1.23,10.518,10.518,0,0,1-3.726-3.469,16.651,16.651,0,0,1-2.239-5.383A30.005,30.005,0,0,1-130.977-16.44Zm6.084-.376q0,6.221,1.829,9.28a5.732,5.732,0,0,0,5.178,3.059,7.775,7.775,0,0,0,4.768-2.017,28.848,28.848,0,0,0,5.281-5.981V-28.4a14.461,14.461,0,0,0-3.247-1.042A17.752,17.752,0,0,0-114.6-29.8a9.472,9.472,0,0,0-7.571,3.145Q-124.893-23.516-124.893-16.816Zm45.835-12.578H-89.209v-4.922h16.167v29.36h10.22V0H-90.337V-4.956h11.279Zm2.085-19.312a4.718,4.718,0,0,1,1.846.359,4.465,4.465,0,0,1,1.487,1.008,4.854,4.854,0,0,1,.991,1.487,4.593,4.593,0,0,1,.359,1.829,4.63,4.63,0,0,1-.359,1.812,4.8,4.8,0,0,1-.991,1.5A4.465,4.465,0,0,1-75.127-39.7a4.718,4.718,0,0,1-1.846.359,4.718,4.718,0,0,1-1.846-.359,4.465,4.465,0,0,1-1.487-1.008,4.8,4.8,0,0,1-.991-1.5,4.63,4.63,0,0,1-.359-1.812,4.593,4.593,0,0,1,.359-1.829,4.854,4.854,0,0,1,.991-1.487,4.465,4.465,0,0,1,1.487-1.008A4.718,4.718,0,0,1-76.973-48.706ZM-25.6-1.265A25.726,25.726,0,0,1-30.369.051,29.227,29.227,0,0,1-35.41.479q-8.135,0-12.527-4.409t-4.392-12.886A20.572,20.572,0,0,1-51.064-24.2a16.443,16.443,0,0,1,3.555-5.674,15.711,15.711,0,0,1,5.469-3.64,18.572,18.572,0,0,1,7.007-1.282,31.278,31.278,0,0,1,4.99.376,20.666,20.666,0,0,1,4.443,1.23v5.674a18.855,18.855,0,0,0-4.529-1.692,21.238,21.238,0,0,0-4.768-.53,10.86,10.86,0,0,0-4.324.872,10.544,10.544,0,0,0-3.572,2.512,11.9,11.9,0,0,0-2.427,4,15.038,15.038,0,0,0-.889,5.332q0,6.221,3.025,9.314t8.391,3.093a20.021,20.021,0,0,0,4.7-.547A19.485,19.485,0,0,0-25.6-6.8Zm23.516-28.13H-12.236v-4.922H3.931v29.36H14.15V0H-13.364V-4.956H-2.085ZM0-48.706a4.718,4.718,0,0,1,1.846.359,4.465,4.465,0,0,1,1.487,1.008,4.853,4.853,0,0,1,.991,1.487,4.593,4.593,0,0,1,.359,1.829,4.63,4.63,0,0,1-.359,1.812,4.8,4.8,0,0,1-.991,1.5A4.465,4.465,0,0,1,1.846-39.7,4.718,4.718,0,0,1,0-39.341,4.718,4.718,0,0,1-1.846-39.7a4.465,4.465,0,0,1-1.487-1.008,4.8,4.8,0,0,1-.991-1.5,4.63,4.63,0,0,1-.359-1.812,4.593,4.593,0,0,1,.359-1.829,4.853,4.853,0,0,1,.991-1.487,4.465,4.465,0,0,1,1.487-1.008A4.718,4.718,0,0,1,0-48.706ZM54.585-17.432A22.75,22.75,0,0,1,53.457-10.1,16.31,16.31,0,0,1,50.21-4.392,14.567,14.567,0,0,1,45.049-.7a17.234,17.234,0,0,1-6.9,1.316A18.013,18.013,0,0,1,31.531-.53,13.085,13.085,0,0,1,26.575-3.9a14.9,14.9,0,0,1-3.11-5.5,24.222,24.222,0,0,1-1.077-7.554,22.44,22.44,0,0,1,1.128-7.3,16.36,16.36,0,0,1,3.247-5.674,14.567,14.567,0,0,1,5.161-3.691,17.234,17.234,0,0,1,6.9-1.316,18.013,18.013,0,0,1,6.614,1.145,13.177,13.177,0,0,1,4.956,3.35,14.734,14.734,0,0,1,3.11,5.486A24.1,24.1,0,0,1,54.585-17.432Zm-6.084.273a19.715,19.715,0,0,0-.7-5.554,11.187,11.187,0,0,0-2-3.965,8.248,8.248,0,0,0-3.162-2.393,10.384,10.384,0,0,0-4.153-.8,9.345,9.345,0,0,0-4.563,1.042,9.035,9.035,0,0,0-3.11,2.786,12,12,0,0,0-1.777,4.05,20.3,20.3,0,0,0-.564,4.836,19.9,19.9,0,0,0,.7,5.571,11.176,11.176,0,0,0,2,3.982,8.278,8.278,0,0,0,3.145,2.393,10.351,10.351,0,0,0,4.17.8,9.345,9.345,0,0,0,4.563-1.042,9.035,9.035,0,0,0,3.11-2.786,12,12,0,0,0,1.777-4.05A20.45,20.45,0,0,0,48.5-17.158ZM63.2-34.316h5.3l.239,5.537a24.776,24.776,0,0,1,2.905-2.957,15.931,15.931,0,0,1,2.751-1.9,10.3,10.3,0,0,1,2.751-1.008,14.278,14.278,0,0,1,2.905-.291q5.3,0,8.015,3.127t2.717,9.417V0H84.834V-21.909q0-4.033-1.5-5.964A5.326,5.326,0,0,0,78.853-29.8a7.143,7.143,0,0,0-2.136.325,7.786,7.786,0,0,0-2.17,1.128,17.92,17.92,0,0,0-2.444,2.17q-1.316,1.367-2.957,3.418V0H63.2ZM123.73,0l-.137-4.614a18.6,18.6,0,0,1-5.691,4,15.321,15.321,0,0,1-6.067,1.23,14.864,14.864,0,0,1-5.024-.752A9.414,9.414,0,0,1,103.376-2.2,8.016,8.016,0,0,1,101.394-5.3a11.445,11.445,0,0,1-.632-3.862,9.586,9.586,0,0,1,3.845-8.083q3.845-2.922,11.365-2.922h7.109v-3.008a6.364,6.364,0,0,0-1.948-4.871q-1.948-1.829-5.947-1.829a25.428,25.428,0,0,0-5.725.649,40.242,40.242,0,0,0-5.828,1.846v-5.366q1.128-.41,2.512-.8t2.922-.7q1.538-.308,3.213-.5a30.314,30.314,0,0,1,3.384-.188,21.221,21.221,0,0,1,5.605.684,11.367,11.367,0,0,1,4.221,2.085,9.175,9.175,0,0,1,2.649,3.521,12.424,12.424,0,0,1,.923,4.99V0Zm-.649-15.62h-7.554a14.483,14.483,0,0,0-3.828.444,7.266,7.266,0,0,0-2.632,1.265,5.075,5.075,0,0,0-1.521,1.965,6.435,6.435,0,0,0-.5,2.581,5.858,5.858,0,0,0,.308,1.9,4.219,4.219,0,0,0,.991,1.606,4.784,4.784,0,0,0,1.777,1.111,7.625,7.625,0,0,0,2.666.41,11.272,11.272,0,0,0,4.7-1.248,22.962,22.962,0,0,0,5.588-3.948ZM151.86-43.408H141.709V-48.3h16.167v43.34H168.1V0H140.581V-4.956H151.86ZM207.642-18.97q0,1.265-.034,2.119t-.1,1.606h-24.1q0,5.264,2.939,8.083t8.477,2.82q1.5,0,3.008-.12t2.905-.325q1.4-.205,2.683-.461t2.375-.564V-.923A41.518,41.518,0,0,1,200.31.188a45.807,45.807,0,0,1-6.34.427,21.56,21.56,0,0,1-7.588-1.2,12.987,12.987,0,0,1-5.212-3.469,14.284,14.284,0,0,1-3.008-5.571,26.366,26.366,0,0,1-.974-7.468,22.177,22.177,0,0,1,1.042-6.853,17.2,17.2,0,0,1,3.042-5.674,14.623,14.623,0,0,1,4.9-3.879,14.7,14.7,0,0,1,6.6-1.436,16.744,16.744,0,0,1,6.357,1.128,12.766,12.766,0,0,1,4.666,3.2,13.625,13.625,0,0,1,2.871,5.024A21.063,21.063,0,0,1,207.642-18.97Zm-6.187-.854a12.965,12.965,0,0,0-.444-4.187,8.813,8.813,0,0,0-1.692-3.264,7.88,7.88,0,0,0-2.854-2.136,9.579,9.579,0,0,0-3.965-.769,8.281,8.281,0,0,0-3.555.752,8.106,8.106,0,0,0-2.769,2.119,10.947,10.947,0,0,0-1.88,3.281,15.129,15.129,0,0,0-.889,4.2ZM244.316-9.365a8.169,8.169,0,0,1-.615,3.247,8.518,8.518,0,0,1-1.675,2.546,10.419,10.419,0,0,1-2.461,1.9,16.361,16.361,0,0,1-2.991,1.3,19.676,19.676,0,0,1-3.264.752,23.187,23.187,0,0,1-3.281.239,61.5,61.5,0,0,1-6.409-.308A43.232,43.232,0,0,1,217.9-.684V-6.152a47.641,47.641,0,0,0,5.981,1.3,39.963,39.963,0,0,0,5.913.444,13.267,13.267,0,0,0,6.323-1.162,3.635,3.635,0,0,0,2.051-3.315,4.06,4.06,0,0,0-.325-1.658,3.766,3.766,0,0,0-1.179-1.4,11.271,11.271,0,0,0-2.649-1.384q-1.794-.718-4.9-1.641a34.814,34.814,0,0,1-4.29-1.555,14.383,14.383,0,0,1-3.4-2.068,8.88,8.88,0,0,1-2.256-2.8,8.243,8.243,0,0,1-.82-3.794,8.718,8.718,0,0,1,.667-3.145,8.545,8.545,0,0,1,2.273-3.179,12.649,12.649,0,0,1,4.341-2.444,20.587,20.587,0,0,1,6.836-.974q2.017,0,4.478.222a46.239,46.239,0,0,1,5.127.769v5.3a49.016,49.016,0,0,0-5.315-1.008,34.631,34.631,0,0,0-4.358-.325,17.39,17.39,0,0,0-3.743.342,7.766,7.766,0,0,0-2.461.94,3.669,3.669,0,0,0-1.35,1.4,3.741,3.741,0,0,0-.41,1.726,3.839,3.839,0,0,0,.359,1.675,4.008,4.008,0,0,0,1.333,1.453,13.138,13.138,0,0,0,2.717,1.4q1.743.7,4.546,1.521a36.362,36.362,0,0,1,5.127,1.863,13.233,13.233,0,0,1,3.384,2.17,7,7,0,0,1,1.863,2.7A9.687,9.687,0,0,1,244.316-9.365Z" transform="translate(323 170)" fill="#62c462"/><path d="M19,3a13.966,13.966,0,0,0-3.5,27.494V59.506a14,14,0,1,0,7,0V45.677c.523.29,1.061.556,1.607.806,4.57,2.095,9.978,3.045,15.183,4.129s10.176,2.31,13.419,4.156c2.353,1.34,3.8,2.665,4.43,4.847a13.932,13.932,0,1,0,7.02-.219,16.018,16.018,0,0,0-7.991-10.712c-4.632-2.638-10.16-3.818-15.456-4.922s-10.388-2.122-13.692-3.637a9.53,9.53,0,0,1-3.486-2.454A4.511,4.511,0,0,1,22.5,34.5V30.494A13.966,13.966,0,0,0,19,3Zm0,7a6.986,6.986,0,0,1,.314,13.966,3.5,3.5,0,0,0-.369-.014q-.134,0-.267.014A6.986,6.986,0,0,1,19,10Zm-.314,56.034a3.5,3.5,0,0,0,.636,0,7,7,0,1,1-.636,0Zm42,0a3.5,3.5,0,0,0,.636,0,7,7,0,1,1-.636,0Z" transform="translate(283 200)" fill="#62c462"/></g></svg>