<svg xmlns="http://www.w3.org/2000/svg" xmlns:xlink="http://www.w3.org/1999/xlink" width="645" height="400" viewBox="0 0 645 400">
  <defs>
    <clipPath id="clip-Mod2">
      <rect width="645" height="400"/>
    </clipPath>
  </defs>
  <g id="Mod2" clip-path="url(#clip-Mod2)">
    <rect width="645" height="400" fill="#262a33"/>
    <circle id="Elipse_1" data-name="Elipse 1" cx="12.5" cy="12.5" r="12.5" transform="translate(27 23)" fill="#d9515d"/>
    <circle id="Elipse_2" data-name="Elipse 2" cx="12.5" cy="12.5" r="12.5" transform="translate(63 23)" fill="#f4c025"/>
    <circle id="Elipse_3" data-name="Elipse 3" cx="12.5" cy="12.5" r="12.5" transform="translate(99 23)" fill="#3ec930"/>
    <text id="Condicionales" transform="translate(323 170)" fill="#62c462" font-size="70" font-family="Consolas"><tspan x="-250.161" y="0">Condicionales</tspan></text>
    <path id="icons8-merge-git" d="M19,3a13.966,13.966,0,0,0-3.5,27.494V59.506a14,14,0,1,0,7,0V45.677c.523.29,1.061.556,1.607.806,4.57,2.095,9.978,3.045,15.183,4.129s10.176,2.31,13.419,4.156c2.353,1.34,3.8,2.665,4.43,4.847a13.932,13.932,0,1,0,7.02-.219,16.018,16.018,0,0,0-7.991-10.712c-4.632-2.638-10.16-3.818-15.456-4.922s-10.388-2.122-13.692-3.637a9.53,9.53,0,0,1-3.486-2.454A4.511,4.511,0,0,1,22.5,34.5V30.494A13.966,13.966,0,0,0,19,3Zm0,7a6.986,6.986,0,0,1,.314,13.966,3.5,3.5,0,0,0-.369-.014q-.134,0-.267.014A6.986,6.986,0,0,1,19,10Zm-.314,56.034a3.5,3.5,0,0,0,.636,0,7,7,0,1,1-.636,0Zm42,0a3.5,3.5,0,0,0,.636,0,7,7,0,1,1-.636,0Z" transform="translate(283 200)" fill="#62c462"/>
  </g>
</svg>
