<svg xmlns="http://www.w3.org/2000/svg" xmlns:xlink="http://www.w3.org/1999/xlink" width="645" height="400" viewBox="0 0 645 400">
  <defs>
    <clipPath id="clip-Mod3">
      <rect width="645" height="400"/>
    </clipPath>
  </defs>
  <g id="Mod3" clip-path="url(#clip-Mod3)">
    <rect width="645" height="400" fill="#262a33"/>
    <circle id="Elipse_1" data-name="Elipse 1" cx="12.5" cy="12.5" r="12.5" transform="translate(27 23)" fill="#d9515d"/>
    <circle id="Elipse_2" data-name="Elipse 2" cx="12.5" cy="12.5" r="12.5" transform="translate(63 23)" fill="#f4c025"/>
    <circle id="Elipse_3" data-name="Elipse 3" cx="12.5" cy="12.5" r="12.5" transform="translate(99 23)" fill="#3ec930"/>
    <path id="Trazado_8" data-name="Trazado 8" d="M-81.45-1.675A29.111,29.111,0,0,1-92.7.547q-9.468,0-14.543-5.657t-5.076-16.731a31.5,31.5,0,0,1,1.4-9.707,21.1,21.1,0,0,1,4-7.366,17.607,17.607,0,0,1,6.289-4.666,20.152,20.152,0,0,1,8.271-1.641,29.648,29.648,0,0,1,5.776.53,24.194,24.194,0,0,1,5.127,1.624v5.981a22.672,22.672,0,0,0-5.024-2.034,21.741,21.741,0,0,0-5.674-.7,13.383,13.383,0,0,0-5.691,1.179,11.774,11.774,0,0,0-4.324,3.418,16,16,0,0,0-2.734,5.469,25.946,25.946,0,0,0-.957,7.366q0,8.682,3.521,13.091t10.322,4.409a22.333,22.333,0,0,0,5.5-.667A25.651,25.651,0,0,0-81.45-7.417Zm21.636-27.72H-69.966v-4.922H-53.8v29.36h10.22V0H-71.094V-4.956h11.279Zm2.085-19.312a4.718,4.718,0,0,1,1.846.359A4.465,4.465,0,0,1-54.4-47.339a4.853,4.853,0,0,1,.991,1.487,4.593,4.593,0,0,1,.359,1.829,4.63,4.63,0,0,1-.359,1.812,4.8,4.8,0,0,1-.991,1.5A4.465,4.465,0,0,1-55.884-39.7a4.718,4.718,0,0,1-1.846.359,4.718,4.718,0,0,1-1.846-.359,4.465,4.465,0,0,1-1.487-1.008,4.8,4.8,0,0,1-.991-1.5,4.63,4.63,0,0,1-.359-1.812,4.593,4.593,0,0,1,.359-1.829,4.853,4.853,0,0,1,.991-1.487,4.465,4.465,0,0,1,1.487-1.008A4.718,4.718,0,0,1-57.729-48.706ZM-6.357-1.265A25.726,25.726,0,0,1-11.125.051a29.227,29.227,0,0,1-5.042.427q-8.135,0-12.527-4.409t-4.392-12.886A20.572,20.572,0,0,1-31.821-24.2a16.443,16.443,0,0,1,3.555-5.674,15.711,15.711,0,0,1,5.469-3.64,18.572,18.572,0,0,1,7.007-1.282,31.278,31.278,0,0,1,4.99.376,20.666,20.666,0,0,1,4.443,1.23v5.674a18.855,18.855,0,0,0-4.529-1.692,21.238,21.238,0,0,0-4.768-.53,10.86,10.86,0,0,0-4.324.872,10.544,10.544,0,0,0-3.572,2.512,11.9,11.9,0,0,0-2.427,4,15.039,15.039,0,0,0-.889,5.332q0,6.221,3.025,9.314t8.391,3.093a20.021,20.021,0,0,0,4.7-.547A19.485,19.485,0,0,0-6.357-6.8ZM17.158-43.408H7.007V-48.3H23.174v43.34h10.22V0H5.879V-4.956H17.158Zm56.67,25.977A22.75,22.75,0,0,1,72.7-10.1a16.311,16.311,0,0,1-3.247,5.708A14.567,14.567,0,0,1,64.292-.7a17.234,17.234,0,0,1-6.9,1.316A18.013,18.013,0,0,1,50.774-.53,13.085,13.085,0,0,1,45.818-3.9a14.9,14.9,0,0,1-3.11-5.5,24.222,24.222,0,0,1-1.077-7.554,22.44,22.44,0,0,1,1.128-7.3,16.36,16.36,0,0,1,3.247-5.674,14.567,14.567,0,0,1,5.161-3.691,17.234,17.234,0,0,1,6.9-1.316,18.013,18.013,0,0,1,6.614,1.145,13.177,13.177,0,0,1,4.956,3.35,14.734,14.734,0,0,1,3.11,5.486A24.1,24.1,0,0,1,73.828-17.432Zm-6.084.273a19.714,19.714,0,0,0-.7-5.554,11.187,11.187,0,0,0-2-3.965,8.248,8.248,0,0,0-3.162-2.393,10.384,10.384,0,0,0-4.153-.8,9.345,9.345,0,0,0-4.563,1.042,9.035,9.035,0,0,0-3.11,2.786,12,12,0,0,0-1.777,4.05,20.3,20.3,0,0,0-.564,4.836,19.9,19.9,0,0,0,.7,5.571,11.176,11.176,0,0,0,2,3.982A8.278,8.278,0,0,0,53.56-5.212a10.351,10.351,0,0,0,4.17.8,9.345,9.345,0,0,0,4.563-1.042A9.035,9.035,0,0,0,65.4-8.237a12,12,0,0,0,1.777-4.05A20.45,20.45,0,0,0,67.744-17.158Zm41.87,7.793A8.169,8.169,0,0,1,109-6.118a8.518,8.518,0,0,1-1.675,2.546,10.42,10.42,0,0,1-2.461,1.9,16.36,16.36,0,0,1-2.991,1.3,19.676,19.676,0,0,1-3.264.752,23.188,23.188,0,0,1-3.281.239A61.5,61.5,0,0,1,88.918.308a43.232,43.232,0,0,1-5.725-.991V-6.152a47.641,47.641,0,0,0,5.981,1.3,39.963,39.963,0,0,0,5.913.444,13.267,13.267,0,0,0,6.323-1.162,3.635,3.635,0,0,0,2.051-3.315,4.061,4.061,0,0,0-.325-1.658,3.766,3.766,0,0,0-1.179-1.4,11.271,11.271,0,0,0-2.649-1.384q-1.794-.718-4.9-1.641a34.814,34.814,0,0,1-4.29-1.555,14.383,14.383,0,0,1-3.4-2.068,8.88,8.88,0,0,1-2.256-2.8,8.243,8.243,0,0,1-.82-3.794,8.718,8.718,0,0,1,.667-3.145,8.545,8.545,0,0,1,2.273-3.179,12.649,12.649,0,0,1,4.341-2.444,20.587,20.587,0,0,1,6.836-.974q2.017,0,4.478.222a46.239,46.239,0,0,1,5.127.769v5.3a49.016,49.016,0,0,0-5.315-1.008,34.631,34.631,0,0,0-4.358-.325,17.39,17.39,0,0,0-3.743.342,7.766,7.766,0,0,0-2.461.94,3.669,3.669,0,0,0-1.35,1.4,3.741,3.741,0,0,0-.41,1.726,3.839,3.839,0,0,0,.359,1.675,4.008,4.008,0,0,0,1.333,1.453,13.138,13.138,0,0,0,2.717,1.4q1.743.7,4.546,1.521a36.363,36.363,0,0,1,5.127,1.863,13.232,13.232,0,0,1,3.384,2.17,7,7,0,0,1,1.863,2.7A9.687,9.687,0,0,1,109.614-9.365Z" transform="translate(322 167)" fill="#62c462"/>
    <path id="icons8-compare-git" d="M14.667,3A11.638,11.638,0,0,0,11.75,25.912V55.5a8.8,8.8,0,0,0,8.75,8.75h5.833V73L40.917,61.333,26.333,49.667v8.75H20.5A2.87,2.87,0,0,1,17.583,55.5V25.912A11.638,11.638,0,0,0,14.667,3Zm35,0L35.083,14.667,49.667,26.333v-8.75H55.5A2.87,2.87,0,0,1,58.417,20.5V50.088a11.667,11.667,0,1,0,5.833,0V20.5a8.8,8.8,0,0,0-8.75-8.75H49.667Zm-35,5.833a5.822,5.822,0,0,1,.262,11.638,2.918,2.918,0,0,0-.308-.011q-.111,0-.222.011a5.822,5.822,0,0,1,.268-11.638Zm46.4,46.7a2.919,2.919,0,0,0,.53,0,5.836,5.836,0,1,1-.53,0Z" transform="translate(284 218)" fill="#62c462"/>
  </g>
</svg>
