<svg xmlns="http://www.w3.org/2000/svg" xmlns:xlink="http://www.w3.org/1999/xlink" width="645" height="400" viewBox="0 0 645 400">
  <defs>
    <clipPath id="clip-Mod3">
      <rect width="645" height="400"/>
    </clipPath>
  </defs>
  <g id="Mod3" clip-path="url(#clip-Mod3)">
    <rect width="645" height="400" fill="#262a33"/>
    <circle id="Elipse_1" data-name="Elipse 1" cx="12.5" cy="12.5" r="12.5" transform="translate(27 23)" fill="#d9515d"/>
    <circle id="Elipse_2" data-name="Elipse 2" cx="12.5" cy="12.5" r="12.5" transform="translate(63 23)" fill="#f4c025"/>
    <circle id="Elipse_3" data-name="Elipse 3" cx="12.5" cy="12.5" r="12.5" transform="translate(99 23)" fill="#3ec930"/>
    <text id="Ciclos" transform="translate(322 167)" fill="#f89406" font-size="70" font-family="Consolas"><tspan x="-115.459" y="0">Ciclos</tspan></text>
    <path id="icons8-compare-git" d="M14.667,3A11.638,11.638,0,0,0,11.75,25.912V55.5a8.8,8.8,0,0,0,8.75,8.75h5.833V73L40.917,61.333,26.333,49.667v8.75H20.5A2.87,2.87,0,0,1,17.583,55.5V25.912A11.638,11.638,0,0,0,14.667,3Zm35,0L35.083,14.667,49.667,26.333v-8.75H55.5A2.87,2.87,0,0,1,58.417,20.5V50.088a11.667,11.667,0,1,0,5.833,0V20.5a8.8,8.8,0,0,0-8.75-8.75H49.667Zm-35,5.833a5.822,5.822,0,0,1,.262,11.638,2.918,2.918,0,0,0-.308-.011q-.111,0-.222.011a5.822,5.822,0,0,1,.268-11.638Zm46.4,46.7a2.919,2.919,0,0,0,.53,0,5.836,5.836,0,1,1-.53,0Z" transform="translate(284 218)" fill="#f89406"/>
  </g>
</svg>
