<svg xmlns="http://www.w3.org/2000/svg" xmlns:xlink="http://www.w3.org/1999/xlink" width="645" height="400" viewBox="0 0 645 400"><defs><clipPath id="b"><rect width="645" height="400"/></clipPath></defs><g id="a" clip-path="url(#b)"><rect width="645" height="400" fill="#262a33"/><circle cx="12.5" cy="12.5" r="12.5" transform="translate(27 23)" fill="#d9515d"/><circle cx="12.5" cy="12.5" r="12.5" transform="translate(63 23)" fill="#f4c025"/><circle cx="12.5" cy="12.5" r="12.5" transform="translate(99 23)" fill="#3ec930"/><path d="M-115.8,0h-6.631l-3.11-9.741h-18.594L-147.28,0H-153.6l14.834-44.673h8.34Zm-11.484-15.176-7.554-23.892-7.554,23.892Zm18.7-19.141h5.435l.171,6.323a22.028,22.028,0,0,1,6-5.3,12.18,12.18,0,0,1,5.964-1.641q5.332,0,8.083,3.452t2.546,10.254h-6.016q.1-4.512-1.316-6.545A4.742,4.742,0,0,0-91.875-29.8a7.219,7.219,0,0,0-2.41.427,9.736,9.736,0,0,0-2.5,1.367A22.352,22.352,0,0,0-99.5-25.6a44.49,44.49,0,0,0-3.076,3.555V0h-6.016Zm38.486,0h5.435l.171,6.323a22.028,22.028,0,0,1,6-5.3,12.18,12.18,0,0,1,5.964-1.641q5.332,0,8.083,3.452T-41.9-21.226H-47.92q.1-4.512-1.316-6.545A4.742,4.742,0,0,0-53.389-29.8a7.219,7.219,0,0,0-2.41.427,9.736,9.736,0,0,0-2.5,1.367,22.352,22.352,0,0,0-2.717,2.41,44.49,44.49,0,0,0-3.076,3.555V0H-70.1ZM-4.033-18.97q0,1.265-.034,2.119t-.1,1.606h-24.1q0,5.264,2.939,8.083t8.477,2.82q1.5,0,3.008-.12t2.905-.325q1.4-.205,2.683-.461t2.375-.564V-.923A41.518,41.518,0,0,1-11.365.188a45.807,45.807,0,0,1-6.34.427,21.56,21.56,0,0,1-7.588-1.2A12.987,12.987,0,0,1-30.505-4.05a14.284,14.284,0,0,1-3.008-5.571,26.366,26.366,0,0,1-.974-7.468,22.177,22.177,0,0,1,1.042-6.853A17.2,17.2,0,0,1-30.4-29.617,14.623,14.623,0,0,1-25.5-33.5a14.7,14.7,0,0,1,6.6-1.436A16.744,16.744,0,0,1-12.544-33.8a12.766,12.766,0,0,1,4.666,3.2,13.625,13.625,0,0,1,2.871,5.024A21.064,21.064,0,0,1-4.033-18.97Zm-6.187-.854a12.965,12.965,0,0,0-.444-4.187,8.813,8.813,0,0,0-1.692-3.264,7.88,7.88,0,0,0-2.854-2.136,9.579,9.579,0,0,0-3.965-.769,8.281,8.281,0,0,0-3.555.752A8.106,8.106,0,0,0-25.5-27.31a10.947,10.947,0,0,0-1.88,3.281,15.129,15.129,0,0,0-.889,4.2Zm40.4-9.639a8.936,8.936,0,0,1,1.487,2.786,10.8,10.8,0,0,1,.53,3.435,11.92,11.92,0,0,1-.974,4.871,10.815,10.815,0,0,1-2.751,3.777,12.7,12.7,0,0,1-4.255,2.444,16.333,16.333,0,0,1-5.452.872,16.882,16.882,0,0,1-4.033-.461,10.318,10.318,0,0,1-2.974-1.145,18.245,18.245,0,0,0-1.094,1.812A4.086,4.086,0,0,0,10.22-9.16a2.536,2.536,0,0,0,1.248,2.153,6.108,6.108,0,0,0,3.3.923l9.023.342a20.383,20.383,0,0,1,4.734.649,11.658,11.658,0,0,1,3.726,1.675,7.848,7.848,0,0,1,2.427,2.7,7.691,7.691,0,0,1,.872,3.726,9.849,9.849,0,0,1-.991,4.341A9.925,9.925,0,0,1,31.5,10.955a16.158,16.158,0,0,1-5.247,2.478,27.285,27.285,0,0,1-7.554.923,32.392,32.392,0,0,1-7.092-.667,15.539,15.539,0,0,1-4.8-1.846,7.453,7.453,0,0,1-2.734-2.8,7.55,7.55,0,0,1-.854-3.572A8.149,8.149,0,0,1,4.375,1.094,13.12,13.12,0,0,1,7.964-2.529,5.667,5.667,0,0,1,6.426-3.555,5.651,5.651,0,0,1,5.366-4.9,6.324,6.324,0,0,1,4.751-6.46a6.609,6.609,0,0,1-.205-1.606,8.127,8.127,0,0,1,1.042-4.067A20.882,20.882,0,0,1,8.066-15.62a17.85,17.85,0,0,1-1.145-1.538,9.545,9.545,0,0,1-.854-1.624,9.5,9.5,0,0,1-.547-1.88,12.681,12.681,0,0,1-.188-2.307,11.919,11.919,0,0,1,.974-4.871,10.915,10.915,0,0,1,2.734-3.777,12.506,12.506,0,0,1,4.238-2.444,16.442,16.442,0,0,1,5.486-.872,16.671,16.671,0,0,1,2.427.171,13.9,13.9,0,0,1,2.051.444H35.684v4.854ZM9.536,4.956a3.7,3.7,0,0,0,2.529,3.538A17.964,17.964,0,0,0,19.106,9.6a18.886,18.886,0,0,0,4.768-.513,9.635,9.635,0,0,0,3.11-1.35,5.03,5.03,0,0,0,1.692-1.914,5.076,5.076,0,0,0,.513-2.2A3.31,3.31,0,0,0,27.48.547,11.911,11.911,0,0,0,22.251-.615L13.3-.923A12.959,12.959,0,0,0,11.433.547,6.458,6.458,0,0,0,10.288,2a5.636,5.636,0,0,0-.581,1.47A6.543,6.543,0,0,0,9.536,4.956Zm1.812-28.062a8.029,8.029,0,0,0,.547,3.008,6.579,6.579,0,0,0,1.538,2.324,7.022,7.022,0,0,0,2.341,1.487,8.123,8.123,0,0,0,2.991.53,7.9,7.9,0,0,0,3.162-.6,6.719,6.719,0,0,0,2.324-1.624,7.132,7.132,0,0,0,1.436-2.358,7.881,7.881,0,0,0,.5-2.769,8.028,8.028,0,0,0-.547-3.008A6.579,6.579,0,0,0,24.1-28.437a7.022,7.022,0,0,0-2.341-1.487,8.123,8.123,0,0,0-2.991-.53,7.712,7.712,0,0,0-3.162.615,7.037,7.037,0,0,0-2.324,1.624,6.943,6.943,0,0,0-1.436,2.341A7.881,7.881,0,0,0,11.348-23.105Zm44.3-20.3H45.493V-48.3H61.66v43.34H71.88V0H44.365V-4.956H55.645Zm56.67,25.977a22.75,22.75,0,0,1-1.128,7.332,16.311,16.311,0,0,1-3.247,5.708A14.567,14.567,0,0,1,102.778-.7a17.234,17.234,0,0,1-6.9,1.316A18.013,18.013,0,0,1,89.26-.53,13.085,13.085,0,0,1,84.3-3.9a14.9,14.9,0,0,1-3.11-5.5,24.222,24.222,0,0,1-1.077-7.554,22.44,22.44,0,0,1,1.128-7.3,16.36,16.36,0,0,1,3.247-5.674,14.567,14.567,0,0,1,5.161-3.691,17.234,17.234,0,0,1,6.9-1.316,18.013,18.013,0,0,1,6.614,1.145,13.177,13.177,0,0,1,4.956,3.35,14.734,14.734,0,0,1,3.11,5.486A24.1,24.1,0,0,1,112.314-17.432Zm-6.084.273a19.714,19.714,0,0,0-.7-5.554,11.187,11.187,0,0,0-2-3.965,8.248,8.248,0,0,0-3.162-2.393,10.384,10.384,0,0,0-4.153-.8,9.345,9.345,0,0,0-4.563,1.042,9.035,9.035,0,0,0-3.11,2.786,12,12,0,0,0-1.777,4.05,20.3,20.3,0,0,0-.564,4.836,19.9,19.9,0,0,0,.7,5.571,11.176,11.176,0,0,0,2,3.982,8.278,8.278,0,0,0,3.145,2.393,10.351,10.351,0,0,0,4.17.8,9.345,9.345,0,0,0,4.563-1.042,9.035,9.035,0,0,0,3.11-2.786,12,12,0,0,0,1.777-4.05A20.45,20.45,0,0,0,106.23-17.158ZM148.1-9.365a8.169,8.169,0,0,1-.615,3.247,8.518,8.518,0,0,1-1.675,2.546,10.419,10.419,0,0,1-2.461,1.9,16.361,16.361,0,0,1-2.991,1.3,19.676,19.676,0,0,1-3.264.752,23.187,23.187,0,0,1-3.281.239A61.5,61.5,0,0,1,127.4.308a43.232,43.232,0,0,1-5.725-.991V-6.152a47.641,47.641,0,0,0,5.981,1.3,39.963,39.963,0,0,0,5.913.444A13.267,13.267,0,0,0,139.9-5.571a3.635,3.635,0,0,0,2.051-3.315,4.06,4.06,0,0,0-.325-1.658,3.766,3.766,0,0,0-1.179-1.4A11.271,11.271,0,0,0,137.8-13.33q-1.794-.718-4.9-1.641a34.814,34.814,0,0,1-4.29-1.555,14.383,14.383,0,0,1-3.4-2.068,8.88,8.88,0,0,1-2.256-2.8,8.243,8.243,0,0,1-.82-3.794,8.718,8.718,0,0,1,.667-3.145,8.545,8.545,0,0,1,2.273-3.179,12.649,12.649,0,0,1,4.341-2.444,20.587,20.587,0,0,1,6.836-.974q2.017,0,4.478.222a46.239,46.239,0,0,1,5.127.769v5.3a49.016,49.016,0,0,0-5.315-1.008,34.631,34.631,0,0,0-4.358-.325,17.39,17.39,0,0,0-3.743.342,7.766,7.766,0,0,0-2.461.94,3.669,3.669,0,0,0-1.35,1.4,3.741,3.741,0,0,0-.41,1.726,3.839,3.839,0,0,0,.359,1.675,4.008,4.008,0,0,0,1.333,1.453,13.138,13.138,0,0,0,2.717,1.4q1.743.7,4.546,1.521a36.362,36.362,0,0,1,5.127,1.863,13.233,13.233,0,0,1,3.384,2.17,7,7,0,0,1,1.863,2.7A9.687,9.687,0,0,1,148.1-9.365Z" transform="translate(322 170)" fill="#f89406"/><path d="M7.182,4A3.182,3.182,0,0,0,4,7.182V70.818A3.182,3.182,0,0,0,7.182,74H23.091a3.182,3.182,0,1,0,0-6.364H10.364V10.364H23.091a3.182,3.182,0,1,0,0-6.364ZM54.909,4a3.182,3.182,0,1,0,0,6.364H67.636V67.637H54.909a3.182,3.182,0,1,0,0,6.364H70.818A3.182,3.182,0,0,0,74,70.819V7.182A3.182,3.182,0,0,0,70.819,4Z" transform="translate(283 217)" fill="#f89406"/></g></svg>