<svg xmlns="http://www.w3.org/2000/svg" xmlns:xlink="http://www.w3.org/1999/xlink" width="645" height="400" viewBox="0 0 645 400">
  <defs>
    <clipPath id="clip-Mod4">
      <rect width="645" height="400"/>
    </clipPath>
  </defs>
  <g id="Mod4" clip-path="url(#clip-Mod4)">
    <rect width="645" height="400" fill="#262a33"/>
    <circle id="Elipse_1" data-name="Elipse 1" cx="12.5" cy="12.5" r="12.5" transform="translate(27 23)" fill="#d9515d"/>
    <circle id="Elipse_2" data-name="Elipse 2" cx="12.5" cy="12.5" r="12.5" transform="translate(63 23)" fill="#f4c025"/>
    <circle id="Elipse_3" data-name="Elipse 3" cx="12.5" cy="12.5" r="12.5" transform="translate(99 23)" fill="#3ec930"/>
    <text id="Arreglos" transform="translate(322 170)" fill="#f89406" font-size="70" font-family="Consolas"><tspan x="-153.945" y="0">Arreglos</tspan></text>
    <path id="icons8-square-brackets" d="M7.182,4A3.182,3.182,0,0,0,4,7.182V70.818A3.182,3.182,0,0,0,7.182,74H23.091a3.182,3.182,0,1,0,0-6.364H10.364V10.364H23.091a3.182,3.182,0,1,0,0-6.364ZM54.909,4a3.182,3.182,0,1,0,0,6.364H67.636V67.637H54.909a3.182,3.182,0,1,0,0,6.364H70.818A3.182,3.182,0,0,0,74,70.819V7.182A3.182,3.182,0,0,0,70.819,4Z" transform="translate(283 217)" fill="#f89406"/>
  </g>
</svg>
