<svg xmlns="http://www.w3.org/2000/svg" xmlns:xlink="http://www.w3.org/1999/xlink" width="645" height="400" viewBox="0 0 645 400">
  <defs>
    <clipPath id="clip-Mod5">
      <rect width="645" height="400"/>
    </clipPath>
  </defs>
  <g id="Mod5" clip-path="url(#clip-Mod5)">
    <rect width="645" height="400" fill="#262a33"/>
    <circle id="Elipse_1" data-name="Elipse 1" cx="12.5" cy="12.5" r="12.5" transform="translate(27 23)" fill="#d9515d"/>
    <circle id="Elipse_2" data-name="Elipse 2" cx="12.5" cy="12.5" r="12.5" transform="translate(63 23)" fill="#f4c025"/>
    <circle id="Elipse_3" data-name="Elipse 3" cx="12.5" cy="12.5" r="12.5" transform="translate(99 23)" fill="#3ec930"/>
    <path id="Trazado_6" data-name="Trazado 6" d="M-117.134,0h-5.947l-.889-27.856-.376-10.7-2.085,6.221-6.6,17.773h-4.2l-6.289-17.09-2.085-6.9-.137,11.177L-146.528,0h-5.742l2.188-44.673h7.212l6.016,16.816,1.948,5.674,1.88-5.674,6.323-16.816h7.417Zm29.189,0-.137-4.614a18.6,18.6,0,0,1-5.691,4A15.321,15.321,0,0,1-99.839.615a14.864,14.864,0,0,1-5.024-.752A9.414,9.414,0,0,1-108.3-2.2,8.016,8.016,0,0,1-110.281-5.3a11.445,11.445,0,0,1-.632-3.862,9.586,9.586,0,0,1,3.845-8.083q3.845-2.922,11.365-2.922h7.109v-3.008a6.364,6.364,0,0,0-1.948-4.871q-1.948-1.829-5.947-1.829a25.428,25.428,0,0,0-5.725.649,40.242,40.242,0,0,0-5.828,1.846v-5.366q1.128-.41,2.512-.8t2.922-.7q1.538-.308,3.213-.5a30.314,30.314,0,0,1,3.384-.188,21.221,21.221,0,0,1,5.605.684,11.367,11.367,0,0,1,4.221,2.085,9.175,9.175,0,0,1,2.649,3.521,12.424,12.424,0,0,1,.923,4.99V0Zm-.649-15.62h-7.554a14.483,14.483,0,0,0-3.828.444,7.266,7.266,0,0,0-2.632,1.265,5.075,5.075,0,0,0-1.521,1.965,6.435,6.435,0,0,0-.5,2.581,5.858,5.858,0,0,0,.308,1.9,4.219,4.219,0,0,0,.991,1.606,4.784,4.784,0,0,0,1.777,1.111,7.625,7.625,0,0,0,2.666.41,11.272,11.272,0,0,0,4.7-1.248,22.962,22.962,0,0,0,5.588-3.948ZM-43.853-.479a28.967,28.967,0,0,1-4.17.735A42.6,42.6,0,0,1-52.4.479q-6.46,0-9.639-2.922t-3.179-8.972v-17.91h-9.6v-4.99h9.6V-43.75l5.947-1.538v10.972h15.415v4.99H-59.268v17.432q0,3.691,1.965,5.52a8.22,8.22,0,0,0,5.793,1.829A27.661,27.661,0,0,0-47.92-4.8a34.123,34.123,0,0,0,4.067-.8Zm12.236-33.838h5.435l.171,6.323a22.028,22.028,0,0,1,6-5.3,12.18,12.18,0,0,1,5.964-1.641q5.332,0,8.083,3.452t2.546,10.254H-9.434q.1-4.512-1.316-6.545A4.742,4.742,0,0,0-14.9-29.8a7.219,7.219,0,0,0-2.41.427,9.736,9.736,0,0,0-2.5,1.367,22.352,22.352,0,0,0-2.717,2.41A44.49,44.49,0,0,0-25.6-22.046V0h-6.016Zm48.774,4.922H7.007v-4.922H23.174v29.36h10.22V0H5.879V-4.956H17.158Zm2.085-19.312a4.718,4.718,0,0,1,1.846.359,4.465,4.465,0,0,1,1.487,1.008,4.853,4.853,0,0,1,.991,1.487,4.593,4.593,0,0,1,.359,1.829,4.63,4.63,0,0,1-.359,1.812,4.8,4.8,0,0,1-.991,1.5A4.465,4.465,0,0,1,21.089-39.7a4.718,4.718,0,0,1-1.846.359A4.718,4.718,0,0,1,17.4-39.7a4.465,4.465,0,0,1-1.487-1.008,4.8,4.8,0,0,1-.991-1.5,4.63,4.63,0,0,1-.359-1.812,4.593,4.593,0,0,1,.359-1.829,4.853,4.853,0,0,1,.991-1.487A4.465,4.465,0,0,1,17.4-48.347,4.718,4.718,0,0,1,19.243-48.706ZM70.615-1.265A25.726,25.726,0,0,1,65.847.051a29.227,29.227,0,0,1-5.042.427q-8.135,0-12.527-4.409T43.887-16.816A20.572,20.572,0,0,1,45.151-24.2a16.443,16.443,0,0,1,3.555-5.674,15.711,15.711,0,0,1,5.469-3.64,18.572,18.572,0,0,1,7.007-1.282,31.278,31.278,0,0,1,4.99.376,20.666,20.666,0,0,1,4.443,1.23v5.674a18.855,18.855,0,0,0-4.529-1.692,21.238,21.238,0,0,0-4.768-.53,10.86,10.86,0,0,0-4.324.872,10.544,10.544,0,0,0-3.572,2.512,11.9,11.9,0,0,0-2.427,4,15.038,15.038,0,0,0-.889,5.332q0,6.221,3.025,9.314t8.391,3.093a20.021,20.021,0,0,0,4.7-.547A19.485,19.485,0,0,0,70.615-6.8ZM111.426-18.97q0,1.265-.034,2.119t-.1,1.606h-24.1q0,5.264,2.939,8.083t8.477,2.82q1.5,0,3.008-.12t2.905-.325q1.4-.205,2.683-.461t2.375-.564V-.923A41.518,41.518,0,0,1,104.094.188a45.807,45.807,0,0,1-6.34.427,21.56,21.56,0,0,1-7.588-1.2A12.987,12.987,0,0,1,84.954-4.05a14.284,14.284,0,0,1-3.008-5.571,26.366,26.366,0,0,1-.974-7.468,22.177,22.177,0,0,1,1.042-6.853,17.2,17.2,0,0,1,3.042-5.674,14.623,14.623,0,0,1,4.9-3.879,14.7,14.7,0,0,1,6.6-1.436,16.744,16.744,0,0,1,6.357,1.128,12.766,12.766,0,0,1,4.666,3.2,13.625,13.625,0,0,1,2.871,5.024A21.063,21.063,0,0,1,111.426-18.97Zm-6.187-.854a12.965,12.965,0,0,0-.444-4.187,8.813,8.813,0,0,0-1.692-3.264,7.88,7.88,0,0,0-2.854-2.136,9.579,9.579,0,0,0-3.965-.769,8.281,8.281,0,0,0-3.555.752,8.107,8.107,0,0,0-2.769,2.119,10.947,10.947,0,0,0-1.88,3.281,15.129,15.129,0,0,0-.889,4.2ZM148.1-9.365a8.169,8.169,0,0,1-.615,3.247,8.518,8.518,0,0,1-1.675,2.546,10.419,10.419,0,0,1-2.461,1.9,16.361,16.361,0,0,1-2.991,1.3,19.676,19.676,0,0,1-3.264.752,23.187,23.187,0,0,1-3.281.239A61.5,61.5,0,0,1,127.4.308a43.232,43.232,0,0,1-5.725-.991V-6.152a47.641,47.641,0,0,0,5.981,1.3,39.963,39.963,0,0,0,5.913.444A13.267,13.267,0,0,0,139.9-5.571a3.635,3.635,0,0,0,2.051-3.315,4.06,4.06,0,0,0-.325-1.658,3.766,3.766,0,0,0-1.179-1.4A11.271,11.271,0,0,0,137.8-13.33q-1.794-.718-4.9-1.641a34.814,34.814,0,0,1-4.29-1.555,14.383,14.383,0,0,1-3.4-2.068,8.88,8.88,0,0,1-2.256-2.8,8.243,8.243,0,0,1-.82-3.794,8.718,8.718,0,0,1,.667-3.145,8.545,8.545,0,0,1,2.273-3.179,12.649,12.649,0,0,1,4.341-2.444,20.587,20.587,0,0,1,6.836-.974q2.017,0,4.478.222a46.239,46.239,0,0,1,5.127.769v5.3a49.016,49.016,0,0,0-5.315-1.008,34.631,34.631,0,0,0-4.358-.325,17.39,17.39,0,0,0-3.743.342,7.766,7.766,0,0,0-2.461.94,3.669,3.669,0,0,0-1.35,1.4,3.741,3.741,0,0,0-.41,1.726,3.839,3.839,0,0,0,.359,1.675,4.008,4.008,0,0,0,1.333,1.453,13.138,13.138,0,0,0,2.717,1.4q1.743.7,4.546,1.521a36.362,36.362,0,0,1,5.127,1.863,13.233,13.233,0,0,1,3.384,2.17,7,7,0,0,1,1.863,2.7A9.687,9.687,0,0,1,148.1-9.365Z" transform="translate(323 174)" fill="#f89406"/>
    <path id="icons8-registry-editor" d="M68.258,1.016a2.8,2.8,0,0,0-1.11.1L56.4,4.358a2.809,2.809,0,0,0-1.876,3.5L57.764,18.6a2.8,2.8,0,0,0,3.494,1.876L72,17.242a2.809,2.809,0,0,0,1.876-3.5L70.643,3A2.8,2.8,0,0,0,68.258,1.016ZM39,3.8a2.552,2.552,0,0,0-1.81.749L29.949,11.79a2.56,2.56,0,0,0,0,3.62l7.241,7.241a2.56,2.56,0,0,0,3.62,0l7.241-7.241a2.56,2.56,0,0,0,0-3.62L40.81,4.549A2.554,2.554,0,0,0,39,3.8ZM6.8,9.4A2.8,2.8,0,0,0,4,12.2V23.4a2.8,2.8,0,0,0,2.8,2.8H18a2.8,2.8,0,0,0,2.8-2.8V12.2A2.8,2.8,0,0,0,18,9.4ZM63.3,26.211a2.644,2.644,0,0,0-1.006.306l-9.308,5A2.645,2.645,0,0,0,51.918,35.1l5,9.308A2.645,2.645,0,0,0,60.5,45.483l9.308-5A2.645,2.645,0,0,0,70.883,36.9l-5-9.308A2.643,2.643,0,0,0,63.3,26.211ZM6.8,31.8A2.8,2.8,0,0,0,4,34.6V45.8a2.8,2.8,0,0,0,2.8,2.8H18a2.8,2.8,0,0,0,2.8-2.8V34.6A2.8,2.8,0,0,0,18,31.8Zm22.4,0a2.8,2.8,0,0,0-2.8,2.8V45.8a2.8,2.8,0,0,0,2.8,2.8H40.4a2.8,2.8,0,0,0,2.8-2.8V34.6a2.8,2.8,0,0,0-2.8-2.8ZM6.8,54.2A2.8,2.8,0,0,0,4,57V68.2A2.8,2.8,0,0,0,6.8,71H18a2.8,2.8,0,0,0,2.8-2.8V57A2.8,2.8,0,0,0,18,54.2Zm22.4,0A2.8,2.8,0,0,0,26.4,57V68.2A2.8,2.8,0,0,0,29.2,71H40.4a2.8,2.8,0,0,0,2.8-2.8V57a2.8,2.8,0,0,0-2.8-2.8Zm22.4,0A2.8,2.8,0,0,0,48.8,57V68.2A2.8,2.8,0,0,0,51.6,71H62.8a2.8,2.8,0,0,0,2.8-2.8V57a2.8,2.8,0,0,0-2.8-2.8Z" transform="translate(284 241)" fill="#f89406"/>
  </g>
</svg>
