<svg xmlns="http://www.w3.org/2000/svg" xmlns:xlink="http://www.w3.org/1999/xlink" width="645" height="400" viewBox="0 0 645 400">
  <defs>
    <clipPath id="clip-Mod5">
      <rect width="645" height="400"/>
    </clipPath>
  </defs>
  <g id="Mod5" clip-path="url(#clip-Mod5)">
    <rect width="645" height="400" fill="#262a33"/>
    <circle id="Elipse_1" data-name="Elipse 1" cx="12.5" cy="12.5" r="12.5" transform="translate(27 23)" fill="#d9515d"/>
    <circle id="Elipse_2" data-name="Elipse 2" cx="12.5" cy="12.5" r="12.5" transform="translate(63 23)" fill="#f4c025"/>
    <circle id="Elipse_3" data-name="Elipse 3" cx="12.5" cy="12.5" r="12.5" transform="translate(99 23)" fill="#3ec930"/>
    <text id="Matrices" transform="translate(323 174)" fill="#ec4844" font-size="70" font-family="Consolas"><tspan x="-153.945" y="0">Matrices</tspan></text>
    <path id="icons8-registry-editor" d="M68.258,1.016a2.8,2.8,0,0,0-1.11.1L56.4,4.358a2.809,2.809,0,0,0-1.876,3.5L57.764,18.6a2.8,2.8,0,0,0,3.494,1.876L72,17.242a2.809,2.809,0,0,0,1.876-3.5L70.643,3A2.8,2.8,0,0,0,68.258,1.016ZM39,3.8a2.552,2.552,0,0,0-1.81.749L29.949,11.79a2.56,2.56,0,0,0,0,3.62l7.241,7.241a2.56,2.56,0,0,0,3.62,0l7.241-7.241a2.56,2.56,0,0,0,0-3.62L40.81,4.549A2.554,2.554,0,0,0,39,3.8ZM6.8,9.4A2.8,2.8,0,0,0,4,12.2V23.4a2.8,2.8,0,0,0,2.8,2.8H18a2.8,2.8,0,0,0,2.8-2.8V12.2A2.8,2.8,0,0,0,18,9.4ZM63.3,26.211a2.644,2.644,0,0,0-1.006.306l-9.308,5A2.645,2.645,0,0,0,51.918,35.1l5,9.308A2.645,2.645,0,0,0,60.5,45.483l9.308-5A2.645,2.645,0,0,0,70.883,36.9l-5-9.308A2.643,2.643,0,0,0,63.3,26.211ZM6.8,31.8A2.8,2.8,0,0,0,4,34.6V45.8a2.8,2.8,0,0,0,2.8,2.8H18a2.8,2.8,0,0,0,2.8-2.8V34.6A2.8,2.8,0,0,0,18,31.8Zm22.4,0a2.8,2.8,0,0,0-2.8,2.8V45.8a2.8,2.8,0,0,0,2.8,2.8H40.4a2.8,2.8,0,0,0,2.8-2.8V34.6a2.8,2.8,0,0,0-2.8-2.8ZM6.8,54.2A2.8,2.8,0,0,0,4,57V68.2A2.8,2.8,0,0,0,6.8,71H18a2.8,2.8,0,0,0,2.8-2.8V57A2.8,2.8,0,0,0,18,54.2Zm22.4,0A2.8,2.8,0,0,0,26.4,57V68.2A2.8,2.8,0,0,0,29.2,71H40.4a2.8,2.8,0,0,0,2.8-2.8V57a2.8,2.8,0,0,0-2.8-2.8Zm22.4,0A2.8,2.8,0,0,0,48.8,57V68.2A2.8,2.8,0,0,0,51.6,71H62.8a2.8,2.8,0,0,0,2.8-2.8V57a2.8,2.8,0,0,0-2.8-2.8Z" transform="translate(284 241)" fill="#ec4844"/>
  </g>
</svg>
