<svg xmlns="http://www.w3.org/2000/svg" xmlns:xlink="http://www.w3.org/1999/xlink" width="645" height="400" viewBox="0 0 645 400">
  <defs>
    <clipPath id="clip-Mod6">
      <rect width="645" height="400"/>
    </clipPath>
  </defs>
  <g id="Mod6" clip-path="url(#clip-Mod6)">
    <rect width="645" height="400" fill="#262a33"/>
    <circle id="Elipse_1" data-name="Elipse 1" cx="12.5" cy="12.5" r="12.5" transform="translate(27 23)" fill="#d9515d"/>
    <circle id="Elipse_2" data-name="Elipse 2" cx="12.5" cy="12.5" r="12.5" transform="translate(63 23)" fill="#f4c025"/>
    <circle id="Elipse_3" data-name="Elipse 3" cx="12.5" cy="12.5" r="12.5" transform="translate(99 23)" fill="#3ec930"/>
    <text id="Estructuras_de_datos" data-name="Estructuras
de datos" transform="translate(323 157)" fill="#f4c025" font-size="70" font-family="Consolas"><tspan x="-211.675" y="0">Estructuras</tspan><tspan x="-153.945" y="62">de datos</tspan></text>
    <path id="icons8-module" d="M34.7,2a2.8,2.8,0,0,0-1.149.3l-28,14A2.8,2.8,0,0,0,4,18.8V51.456a2.8,2.8,0,0,0,1.3,2.363l28,17.746a2.8,2.8,0,0,0,3,0l28-17.746a2.8,2.8,0,0,0,1.3-2.363V18.8a2.8,2.8,0,0,0-1.548-2.5l-28-14A2.8,2.8,0,0,0,34.7,2Zm.1,5.928L58.294,19.676,51.6,23.937V30l-14,8.4V55.2l12.639-7.585a2.8,2.8,0,0,0,1.362-2.4V30.576L60,25.227V49.913L37.6,64.11V55.2l-2.8,1.8L32,55.2V64.11L9.6,49.913V25.227L18,30.576v14.64a2.8,2.8,0,0,0,1.362,2.4L32,55.2V38.4L18,30V23.937l-6.694-4.26ZM18,23.953l16.8,10.5,16.8-10.5L37.365,16.619a5.6,5.6,0,0,0-5.13,0Z" transform="translate(288 235.09)" fill="#f4c025"/>
  </g>
</svg>
