<svg xmlns="http://www.w3.org/2000/svg" xmlns:xlink="http://www.w3.org/1999/xlink" width="645" height="400" viewBox="0 0 645 400">
  <defs>
    <clipPath id="clip-Mod6">
      <rect width="645" height="400"/>
    </clipPath>
  </defs>
  <g id="Mod6" clip-path="url(#clip-Mod6)">
    <rect width="645" height="400" fill="#262a33"/>
    <circle id="Elipse_1" data-name="Elipse 1" cx="12.5" cy="12.5" r="12.5" transform="translate(27 23)" fill="#d9515d"/>
    <circle id="Elipse_2" data-name="Elipse 2" cx="12.5" cy="12.5" r="12.5" transform="translate(63 23)" fill="#f4c025"/>
    <circle id="Elipse_3" data-name="Elipse 3" cx="12.5" cy="12.5" r="12.5" transform="translate(99 23)" fill="#3ec930"/>
    <text id="Estructuras_de_datos" data-name="Estructuras
de datos" transform="translate(323 157)" fill="#ec4844" font-size="70" font-family="Consolas"><tspan x="-211.675" y="0">Estructuras</tspan><tspan x="-153.945" y="62">de datos</tspan></text>
    <path id="icons8-visual-studio-code" d="M10.364,4A6.366,6.366,0,0,0,4,10.371V67.714a6.366,6.366,0,0,0,6.364,6.371H23.091V4ZM29.455,4V74.085H67.636A6.366,6.366,0,0,0,74,67.714V16.743a6.366,6.366,0,0,0-6.364-6.371H48.545A6.366,6.366,0,0,0,42.182,4ZM13.545,10.371a3.186,3.186,0,1,1-3.182,3.186A3.185,3.185,0,0,1,13.545,10.371ZM39,19.929h9.545a3.186,3.186,0,0,1,0,6.371H39a3.186,3.186,0,0,1,0-6.371ZM13.545,23.114A3.186,3.186,0,1,1,10.364,26.3,3.185,3.185,0,0,1,13.545,23.114Zm31.818,9.557h9.545a3.186,3.186,0,0,1,0,6.371H45.364a3.186,3.186,0,0,1,0-6.371ZM13.545,35.857a3.186,3.186,0,1,1-3.182,3.186A3.185,3.185,0,0,1,13.545,35.857Zm41.364,9.557h9.545a3.186,3.186,0,0,1,0,6.371H54.909a3.186,3.186,0,0,1,0-6.371ZM39,58.157h9.545a3.186,3.186,0,0,1,0,6.371H39a3.186,3.186,0,0,1,0-6.371Z" transform="translate(284 238)" fill="#ec4844"/>
  </g>
</svg>
