<svg xmlns="http://www.w3.org/2000/svg" xmlns:xlink="http://www.w3.org/1999/xlink" width="645" height="400" viewBox="0 0 645 400"><defs><clipPath id="b"><rect width="645" height="400"/></clipPath></defs><g id="a" clip-path="url(#b)"><rect width="645" height="400" fill="#262a33"/><circle cx="12.5" cy="12.5" r="12.5" transform="translate(27 23)" fill="#d9515d"/><circle cx="12.5" cy="12.5" r="12.5" transform="translate(63 23)" fill="#f4c025"/><circle cx="12.5" cy="12.5" r="12.5" transform="translate(99 23)" fill="#3ec930"/><path d="M-179.409,0h-25.4V-44.673h25.4v5.127h-19.312V-25.7h18.56v5.127h-18.56V-5.2h19.312Zm38.862-9.365a8.169,8.169,0,0,1-.615,3.247,8.518,8.518,0,0,1-1.675,2.546,10.419,10.419,0,0,1-2.461,1.9,16.361,16.361,0,0,1-2.991,1.3,19.676,19.676,0,0,1-3.264.752,23.187,23.187,0,0,1-3.281.239,61.5,61.5,0,0,1-6.409-.308,43.232,43.232,0,0,1-5.725-.991V-6.152a47.641,47.641,0,0,0,5.981,1.3,39.963,39.963,0,0,0,5.913.444,13.267,13.267,0,0,0,6.323-1.162A3.635,3.635,0,0,0-146.7-8.887a4.06,4.06,0,0,0-.325-1.658,3.766,3.766,0,0,0-1.179-1.4,11.271,11.271,0,0,0-2.649-1.384q-1.794-.718-4.9-1.641a34.814,34.814,0,0,1-4.29-1.555,14.383,14.383,0,0,1-3.4-2.068,8.88,8.88,0,0,1-2.256-2.8,8.243,8.243,0,0,1-.82-3.794,8.718,8.718,0,0,1,.667-3.145,8.545,8.545,0,0,1,2.273-3.179,12.649,12.649,0,0,1,4.341-2.444,20.587,20.587,0,0,1,6.836-.974q2.017,0,4.478.222a46.239,46.239,0,0,1,5.127.769v5.3a49.016,49.016,0,0,0-5.315-1.008,34.631,34.631,0,0,0-4.358-.325,17.39,17.39,0,0,0-3.743.342,7.766,7.766,0,0,0-2.461.94,3.669,3.669,0,0,0-1.35,1.4,3.741,3.741,0,0,0-.41,1.726,3.839,3.839,0,0,0,.359,1.675,4.008,4.008,0,0,0,1.333,1.453,13.138,13.138,0,0,0,2.717,1.4q1.743.7,4.546,1.521a36.362,36.362,0,0,1,5.127,1.863,13.233,13.233,0,0,1,3.384,2.17,7,7,0,0,1,1.863,2.7A9.687,9.687,0,0,1-140.547-9.365Zm38.965,8.887a28.967,28.967,0,0,1-4.17.735,42.6,42.6,0,0,1-4.375.222q-6.46,0-9.639-2.922t-3.179-8.972v-17.91h-9.6v-4.99h9.6V-43.75L-117-45.288v10.972h15.415v4.99H-117v17.432q0,3.691,1.965,5.52a8.22,8.22,0,0,0,5.793,1.829,27.661,27.661,0,0,0,3.589-.256,34.123,34.123,0,0,0,4.067-.8Zm12.236-33.838h5.435l.171,6.323a22.028,22.028,0,0,1,6-5.3,12.18,12.18,0,0,1,5.964-1.641q5.332,0,8.083,3.452t2.546,10.254h-6.016q.1-4.512-1.316-6.545A4.742,4.742,0,0,0-72.632-29.8a7.219,7.219,0,0,0-2.41.427,9.736,9.736,0,0,0-2.5,1.367,22.352,22.352,0,0,0-2.717,2.41,44.49,44.49,0,0,0-3.076,3.555V0h-6.016ZM-24.678,0H-30.01l-.205-5.537a27.7,27.7,0,0,1-2.922,2.957,15.106,15.106,0,0,1-2.751,1.9A10.594,10.594,0,0,1-38.64.325a14.2,14.2,0,0,1-2.922.291q-5.3,0-8-3.11t-2.7-9.4V-34.316h5.947v21.943q0,7.9,5.947,7.9A7.143,7.143,0,0,0-38.23-4.8,8.022,8.022,0,0,0-36.042-5.93,17.308,17.308,0,0,0-33.582-8.1q1.316-1.367,2.957-3.452V-34.316h5.947ZM12.886-1.265A25.726,25.726,0,0,1,8.118.051,29.227,29.227,0,0,1,3.076.479q-8.135,0-12.527-4.409t-4.392-12.886A20.572,20.572,0,0,1-12.578-24.2a16.443,16.443,0,0,1,3.555-5.674,15.711,15.711,0,0,1,5.469-3.64,18.572,18.572,0,0,1,7.007-1.282,31.278,31.278,0,0,1,4.99.376,20.666,20.666,0,0,1,4.443,1.23v5.674a18.855,18.855,0,0,0-4.529-1.692,21.238,21.238,0,0,0-4.768-.53,10.86,10.86,0,0,0-4.324.872,10.544,10.544,0,0,0-3.572,2.512,11.9,11.9,0,0,0-2.427,4,15.039,15.039,0,0,0-.889,5.332q0,6.221,3.025,9.314T3.794-4.614a20.021,20.021,0,0,0,4.7-.547A19.485,19.485,0,0,0,12.886-6.8Zm39.478.786a28.967,28.967,0,0,1-4.17.735,42.6,42.6,0,0,1-4.375.222q-6.46,0-9.639-2.922T31-11.416v-17.91H21.4v-4.99H31V-43.75l5.947-1.538v10.972H52.363v4.99H36.948v17.432q0,3.691,1.965,5.52a8.22,8.22,0,0,0,5.793,1.829A27.661,27.661,0,0,0,48.3-4.8a34.123,34.123,0,0,0,4.067-.8ZM90.781,0H85.449l-.205-5.537a27.7,27.7,0,0,1-2.922,2.957,15.106,15.106,0,0,1-2.751,1.9A10.594,10.594,0,0,1,76.819.325,14.2,14.2,0,0,1,73.9.615q-5.3,0-8-3.11t-2.7-9.4V-34.316h5.947v21.943q0,7.9,5.947,7.9A7.143,7.143,0,0,0,77.229-4.8,8.022,8.022,0,0,0,79.417-5.93,17.308,17.308,0,0,0,81.877-8.1q1.316-1.367,2.957-3.452V-34.316h5.947Zm12.3-34.316h5.435l.171,6.323a22.028,22.028,0,0,1,6-5.3,12.18,12.18,0,0,1,5.964-1.641q5.332,0,8.083,3.452t2.546,10.254h-6.016q.1-4.512-1.316-6.545A4.742,4.742,0,0,0,119.8-29.8a7.219,7.219,0,0,0-2.41.427,9.736,9.736,0,0,0-2.5,1.367,22.352,22.352,0,0,0-2.717,2.41,44.49,44.49,0,0,0-3.076,3.555V0h-6.016ZM162.217,0l-.137-4.614a18.6,18.6,0,0,1-5.691,4,15.321,15.321,0,0,1-6.067,1.23A14.863,14.863,0,0,1,145.3-.137,9.414,9.414,0,0,1,141.863-2.2,8.016,8.016,0,0,1,139.88-5.3a11.444,11.444,0,0,1-.632-3.862,9.586,9.586,0,0,1,3.845-8.083q3.845-2.922,11.365-2.922h7.109v-3.008a6.364,6.364,0,0,0-1.948-4.871q-1.948-1.829-5.947-1.829a25.428,25.428,0,0,0-5.725.649,40.242,40.242,0,0,0-5.828,1.846v-5.366q1.128-.41,2.512-.8t2.922-.7q1.538-.308,3.213-.5a30.314,30.314,0,0,1,3.384-.188,21.221,21.221,0,0,1,5.605.684,11.367,11.367,0,0,1,4.221,2.085,9.175,9.175,0,0,1,2.649,3.521,12.424,12.424,0,0,1,.923,4.99V0Zm-.649-15.62h-7.554a14.483,14.483,0,0,0-3.828.444,7.265,7.265,0,0,0-2.632,1.265,5.075,5.075,0,0,0-1.521,1.965,6.435,6.435,0,0,0-.5,2.581,5.858,5.858,0,0,0,.308,1.9,4.219,4.219,0,0,0,.991,1.606,4.784,4.784,0,0,0,1.777,1.111,7.625,7.625,0,0,0,2.666.41,11.272,11.272,0,0,0,4.7-1.248,22.962,22.962,0,0,0,5.588-3.948ZM205.83-9.365a8.169,8.169,0,0,1-.615,3.247,8.518,8.518,0,0,1-1.675,2.546,10.419,10.419,0,0,1-2.461,1.9,16.361,16.361,0,0,1-2.991,1.3,19.676,19.676,0,0,1-3.264.752,23.187,23.187,0,0,1-3.281.239,61.5,61.5,0,0,1-6.409-.308,43.232,43.232,0,0,1-5.725-.991V-6.152a47.641,47.641,0,0,0,5.981,1.3,39.963,39.963,0,0,0,5.913.444,13.267,13.267,0,0,0,6.323-1.162,3.635,3.635,0,0,0,2.051-3.315,4.06,4.06,0,0,0-.325-1.658,3.766,3.766,0,0,0-1.179-1.4,11.271,11.271,0,0,0-2.649-1.384q-1.794-.718-4.9-1.641a34.814,34.814,0,0,1-4.29-1.555,14.383,14.383,0,0,1-3.4-2.068,8.88,8.88,0,0,1-2.256-2.8,8.243,8.243,0,0,1-.82-3.794,8.718,8.718,0,0,1,.667-3.145,8.545,8.545,0,0,1,2.273-3.179,12.649,12.649,0,0,1,4.341-2.444,20.587,20.587,0,0,1,6.836-.974q2.017,0,4.478.222a46.239,46.239,0,0,1,5.127.769v5.3a49.016,49.016,0,0,0-5.315-1.008,34.631,34.631,0,0,0-4.358-.325,17.39,17.39,0,0,0-3.743.342,7.766,7.766,0,0,0-2.461.94,3.669,3.669,0,0,0-1.35,1.4,3.741,3.741,0,0,0-.41,1.726,3.839,3.839,0,0,0,.359,1.675,4.008,4.008,0,0,0,1.333,1.453,13.138,13.138,0,0,0,2.717,1.4q1.743.7,4.546,1.521a36.362,36.362,0,0,1,5.127,1.863,13.233,13.233,0,0,1,3.384,2.17,7,7,0,0,1,1.863,2.7A9.687,9.687,0,0,1,205.83-9.365ZM-150.22,45.56a23.37,23.37,0,0,1,1.2-7.776,15.984,15.984,0,0,1,3.4-5.742,14.392,14.392,0,0,1,5.3-3.555,18.717,18.717,0,0,1,6.887-1.213,25.215,25.215,0,0,1,3.23.205,20.879,20.879,0,0,1,3.127.649V13.7h5.981V62h-5.332l-.205-6.494a17.983,17.983,0,0,1-5.4,5.366,12.007,12.007,0,0,1-6.289,1.743,10.577,10.577,0,0,1-5.178-1.23,10.518,10.518,0,0,1-3.726-3.469,16.651,16.651,0,0,1-2.239-5.383A30.005,30.005,0,0,1-150.22,45.56Zm6.084-.376q0,6.221,1.829,9.28a5.732,5.732,0,0,0,5.178,3.059,7.775,7.775,0,0,0,4.768-2.017,28.848,28.848,0,0,0,5.281-5.981V33.6a14.461,14.461,0,0,0-3.247-1.042,17.751,17.751,0,0,0-3.521-.359,9.472,9.472,0,0,0-7.571,3.145Q-144.136,38.484-144.136,45.184Zm63.13-2.153q0,1.265-.034,2.119t-.1,1.606h-24.1q0,5.264,2.939,8.083t8.477,2.82q1.5,0,3.008-.12t2.905-.325q1.4-.205,2.683-.461t2.375-.564v4.888a41.518,41.518,0,0,1-5.486,1.111,45.807,45.807,0,0,1-6.34.427,21.56,21.56,0,0,1-7.588-1.2,12.987,12.987,0,0,1-5.212-3.469,14.284,14.284,0,0,1-3.008-5.571,26.366,26.366,0,0,1-.974-7.468,22.177,22.177,0,0,1,1.042-6.853,17.2,17.2,0,0,1,3.042-5.674,14.623,14.623,0,0,1,4.9-3.879,14.7,14.7,0,0,1,6.6-1.436A16.744,16.744,0,0,1-89.517,28.2a12.766,12.766,0,0,1,4.666,3.2,13.625,13.625,0,0,1,2.871,5.024A21.063,21.063,0,0,1-81.006,43.03Zm-6.187-.854a12.965,12.965,0,0,0-.444-4.187,8.813,8.813,0,0,0-1.692-3.264,7.88,7.88,0,0,0-2.854-2.136,9.579,9.579,0,0,0-3.965-.769,8.281,8.281,0,0,0-3.555.752,8.107,8.107,0,0,0-2.769,2.119,10.947,10.947,0,0,0-1.88,3.281,15.129,15.129,0,0,0-.889,4.2Zm52.432,3.384a23.37,23.37,0,0,1,1.2-7.776,15.984,15.984,0,0,1,3.4-5.742,14.392,14.392,0,0,1,5.3-3.555,18.717,18.717,0,0,1,6.887-1.213,25.215,25.215,0,0,1,3.23.205,20.879,20.879,0,0,1,3.127.649V13.7H-5.64V62h-5.332l-.205-6.494a17.983,17.983,0,0,1-5.4,5.366,12.007,12.007,0,0,1-6.289,1.743,10.577,10.577,0,0,1-5.178-1.23,10.518,10.518,0,0,1-3.726-3.469,16.651,16.651,0,0,1-2.239-5.383A30,30,0,0,1-34.761,45.56Zm6.084-.376q0,6.221,1.829,9.28a5.732,5.732,0,0,0,5.178,3.059A7.775,7.775,0,0,0-16.9,55.506a28.848,28.848,0,0,0,5.281-5.981V33.6a14.461,14.461,0,0,0-3.247-1.042,17.752,17.752,0,0,0-3.521-.359,9.472,9.472,0,0,0-7.571,3.145Q-28.677,38.484-28.677,45.184ZM27.515,62l-.137-4.614a18.6,18.6,0,0,1-5.691,4,15.321,15.321,0,0,1-6.067,1.23,14.864,14.864,0,0,1-5.024-.752A9.414,9.414,0,0,1,7.161,59.8,8.016,8.016,0,0,1,5.178,56.7a11.444,11.444,0,0,1-.632-3.862,9.586,9.586,0,0,1,3.845-8.083q3.845-2.922,11.365-2.922h7.109V38.826a6.364,6.364,0,0,0-1.948-4.871q-1.948-1.829-5.947-1.829a25.428,25.428,0,0,0-5.725.649,40.242,40.242,0,0,0-5.828,1.846V29.256q1.128-.41,2.512-.8t2.922-.7q1.538-.308,3.213-.5a30.314,30.314,0,0,1,3.384-.188,21.221,21.221,0,0,1,5.605.684,11.367,11.367,0,0,1,4.221,2.085,9.175,9.175,0,0,1,2.649,3.521,12.424,12.424,0,0,1,.923,4.99V62Zm-.649-15.62H19.312a14.483,14.483,0,0,0-3.828.444,7.265,7.265,0,0,0-2.632,1.265,5.075,5.075,0,0,0-1.521,1.965,6.435,6.435,0,0,0-.5,2.581,5.858,5.858,0,0,0,.308,1.9,4.219,4.219,0,0,0,.991,1.606,4.784,4.784,0,0,0,1.777,1.111,7.625,7.625,0,0,0,2.666.41,11.272,11.272,0,0,0,4.7-1.248,22.962,22.962,0,0,0,5.588-3.948ZM71.606,61.521a28.967,28.967,0,0,1-4.17.735,42.6,42.6,0,0,1-4.375.222q-6.46,0-9.639-2.922t-3.179-8.972V32.674h-9.6v-4.99h9.6V18.25l5.947-1.538V27.684H71.606v4.99H56.191V50.105q0,3.691,1.965,5.52a8.22,8.22,0,0,0,5.793,1.829,27.661,27.661,0,0,0,3.589-.256,34.123,34.123,0,0,0,4.067-.8Zm40.708-16.953a22.75,22.75,0,0,1-1.128,7.332,16.311,16.311,0,0,1-3.247,5.708,14.567,14.567,0,0,1-5.161,3.691,17.234,17.234,0,0,1-6.9,1.316A18.013,18.013,0,0,1,89.26,61.47,13.085,13.085,0,0,1,84.3,58.1a14.9,14.9,0,0,1-3.11-5.5,24.222,24.222,0,0,1-1.077-7.554,22.44,22.44,0,0,1,1.128-7.3,16.36,16.36,0,0,1,3.247-5.674,14.567,14.567,0,0,1,5.161-3.691,17.234,17.234,0,0,1,6.9-1.316,18.013,18.013,0,0,1,6.614,1.145,13.177,13.177,0,0,1,4.956,3.35,14.734,14.734,0,0,1,3.11,5.486A24.1,24.1,0,0,1,112.314,44.568Zm-6.084.273a19.714,19.714,0,0,0-.7-5.554,11.187,11.187,0,0,0-2-3.965,8.248,8.248,0,0,0-3.162-2.393,10.384,10.384,0,0,0-4.153-.8,9.345,9.345,0,0,0-4.563,1.042,9.035,9.035,0,0,0-3.11,2.786,12,12,0,0,0-1.777,4.05,20.3,20.3,0,0,0-.564,4.836,19.9,19.9,0,0,0,.7,5.571,11.176,11.176,0,0,0,2,3.982,8.278,8.278,0,0,0,3.145,2.393,10.351,10.351,0,0,0,4.17.8,9.345,9.345,0,0,0,4.563-1.042,9.035,9.035,0,0,0,3.11-2.786,12,12,0,0,0,1.777-4.05A20.45,20.45,0,0,0,106.23,44.842Zm41.87,7.793a8.169,8.169,0,0,1-.615,3.247,8.518,8.518,0,0,1-1.675,2.546,10.419,10.419,0,0,1-2.461,1.9,16.361,16.361,0,0,1-2.991,1.3,19.676,19.676,0,0,1-3.264.752,23.188,23.188,0,0,1-3.281.239,61.5,61.5,0,0,1-6.409-.308,43.232,43.232,0,0,1-5.725-.991V55.848a47.641,47.641,0,0,0,5.981,1.3,39.963,39.963,0,0,0,5.913.444,13.267,13.267,0,0,0,6.323-1.162,3.635,3.635,0,0,0,2.051-3.315,4.06,4.06,0,0,0-.325-1.658,3.766,3.766,0,0,0-1.179-1.4A11.271,11.271,0,0,0,137.8,48.67q-1.794-.718-4.9-1.641a34.814,34.814,0,0,1-4.29-1.555,14.383,14.383,0,0,1-3.4-2.068,8.88,8.88,0,0,1-2.256-2.8,8.243,8.243,0,0,1-.82-3.794,8.718,8.718,0,0,1,.667-3.145,8.545,8.545,0,0,1,2.273-3.179,12.649,12.649,0,0,1,4.341-2.444,20.587,20.587,0,0,1,6.836-.974q2.017,0,4.478.222a46.24,46.24,0,0,1,5.127.769v5.3a49.015,49.015,0,0,0-5.315-1.008,34.63,34.63,0,0,0-4.358-.325,17.39,17.39,0,0,0-3.743.342,7.766,7.766,0,0,0-2.461.94,3.669,3.669,0,0,0-1.35,1.4,3.741,3.741,0,0,0-.41,1.726,3.839,3.839,0,0,0,.359,1.675,4.008,4.008,0,0,0,1.333,1.453,13.138,13.138,0,0,0,2.717,1.4q1.743.7,4.546,1.521a36.362,36.362,0,0,1,5.127,1.863,13.233,13.233,0,0,1,3.384,2.17,7,7,0,0,1,1.863,2.7A9.687,9.687,0,0,1,148.1,52.635Z" transform="translate(323 157)" fill="#ec4844"/><path d="M10.364,4A6.366,6.366,0,0,0,4,10.371V67.714a6.366,6.366,0,0,0,6.364,6.371H23.091V4ZM29.455,4V74.085H67.636A6.366,6.366,0,0,0,74,67.714V16.743a6.366,6.366,0,0,0-6.364-6.371H48.545A6.366,6.366,0,0,0,42.182,4ZM13.545,10.371a3.186,3.186,0,1,1-3.182,3.186A3.185,3.185,0,0,1,13.545,10.371ZM39,19.929h9.545a3.186,3.186,0,0,1,0,6.371H39a3.186,3.186,0,0,1,0-6.371ZM13.545,23.114A3.186,3.186,0,1,1,10.364,26.3,3.185,3.185,0,0,1,13.545,23.114Zm31.818,9.557h9.545a3.186,3.186,0,0,1,0,6.371H45.364a3.186,3.186,0,0,1,0-6.371ZM13.545,35.857a3.186,3.186,0,1,1-3.182,3.186A3.185,3.185,0,0,1,13.545,35.857Zm41.364,9.557h9.545a3.186,3.186,0,0,1,0,6.371H54.909a3.186,3.186,0,0,1,0-6.371ZM39,58.157h9.545a3.186,3.186,0,0,1,0,6.371H39a3.186,3.186,0,0,1,0-6.371Z" transform="translate(284 238)" fill="#ec4844"/></g></svg>