<svg xmlns="http://www.w3.org/2000/svg" xmlns:xlink="http://www.w3.org/1999/xlink" width="2673" height="156" viewBox="0 0 2673 156"><defs><clipPath id="b"><rect width="2673" height="156"/></clipPath></defs><g id="a" clip-path="url(#b)"><rect width="2673" height="156" fill="#262a33"/><circle cx="31.5" cy="31.5" r="31.5" transform="translate(83 53)" fill="#d9515d"/><circle cx="31.5" cy="31.5" r="31.5" transform="translate(173 53)" fill="#f4c025"/><circle cx="31.5" cy="31.5" r="31.5" transform="translate(264 53)" fill="#3ec930"/><path d="M32.31-16.5A21.386,21.386,0,0,1,31.215-9.41a14.95,14.95,0,0,1-3.11,5.3A13.373,13.373,0,0,1,23.2-.778,17.348,17.348,0,0,1,16.694.381a32.088,32.088,0,0,1-5.776-.54,29.616,29.616,0,0,1-5.84-1.714V-44.846H10.6V-32.5l-.254,5.9a14.334,14.334,0,0,1,5.094-4.523,13.162,13.162,0,0,1,5.824-1.317,9.731,9.731,0,0,1,4.792,1.143,9.946,9.946,0,0,1,3.459,3.221,15.24,15.24,0,0,1,2.095,5.015A28.371,28.371,0,0,1,32.31-16.5Zm-5.649.254a26.881,26.881,0,0,0-.365-4.6,12.009,12.009,0,0,0-1.158-3.586,6.364,6.364,0,0,0-2.031-2.333,5.125,5.125,0,0,0-2.952-.841,7.181,7.181,0,0,0-2.126.333,8.624,8.624,0,0,0-2.238,1.111,16.67,16.67,0,0,0-2.444,2.063,32.5,32.5,0,0,0-2.745,3.19V-5.459a21.537,21.537,0,0,0,3.3,1,15.128,15.128,0,0,0,3.206.365,10.959,10.959,0,0,0,3.634-.6,7.5,7.5,0,0,0,3.047-2.015,10.082,10.082,0,0,0,2.095-3.745A18.528,18.528,0,0,0,26.66-16.25ZM61.287,0,61.16-4.285A17.272,17.272,0,0,1,55.875-.571,14.226,14.226,0,0,1,50.242.571a13.8,13.8,0,0,1-4.666-.7,8.742,8.742,0,0,1-3.19-1.92,7.444,7.444,0,0,1-1.841-2.872,10.627,10.627,0,0,1-.587-3.586,8.9,8.9,0,0,1,3.571-7.506q3.571-2.714,10.553-2.714h6.6v-2.793a5.909,5.909,0,0,0-1.809-4.523q-1.809-1.7-5.522-1.7a23.612,23.612,0,0,0-5.316.6,37.368,37.368,0,0,0-5.411,1.714v-4.983q1.047-.381,2.333-.746t2.714-.651q1.428-.286,2.983-.46a28.149,28.149,0,0,1,3.142-.175A19.706,19.706,0,0,1,59-31.8a10.555,10.555,0,0,1,3.92,1.936,8.52,8.52,0,0,1,2.46,3.269,11.537,11.537,0,0,1,.857,4.634V0Zm-.6-14.5H53.669a13.449,13.449,0,0,0-3.555.413,6.747,6.747,0,0,0-2.444,1.174,4.713,4.713,0,0,0-1.412,1.825,5.975,5.975,0,0,0-.46,2.4,5.44,5.44,0,0,0,.286,1.761A3.918,3.918,0,0,0,47-5.443a4.443,4.443,0,0,0,1.65,1.031,7.08,7.08,0,0,0,2.476.381,10.467,10.467,0,0,0,4.364-1.158,21.322,21.322,0,0,0,5.189-3.666Zm41.1,5.808a7.586,7.586,0,0,1-.571,3.015,7.91,7.91,0,0,1-1.555,2.365,9.675,9.675,0,0,1-2.285,1.761A15.192,15.192,0,0,1,94.6-.349a18.27,18.27,0,0,1-3.031.7,21.531,21.531,0,0,1-3.047.222A57.107,57.107,0,0,1,82.567.286a40.144,40.144,0,0,1-5.316-.92V-5.713a44.238,44.238,0,0,0,5.554,1.206,37.108,37.108,0,0,0,5.491.413,12.319,12.319,0,0,0,5.872-1.079,3.375,3.375,0,0,0,1.9-3.079,3.77,3.77,0,0,0-.3-1.539,3.5,3.5,0,0,0-1.095-1.3,10.466,10.466,0,0,0-2.46-1.285q-1.666-.667-4.554-1.523a32.327,32.327,0,0,1-3.983-1.444,13.355,13.355,0,0,1-3.158-1.92,8.245,8.245,0,0,1-2.095-2.6,7.654,7.654,0,0,1-.762-3.523,8.1,8.1,0,0,1,.619-2.92,7.934,7.934,0,0,1,2.111-2.952,11.745,11.745,0,0,1,4.031-2.269,19.117,19.117,0,0,1,6.348-.9q1.873,0,4.158.206a42.937,42.937,0,0,1,4.761.714V-26.6a45.515,45.515,0,0,0-4.935-.936,32.157,32.157,0,0,0-4.047-.3,16.148,16.148,0,0,0-3.475.317,7.211,7.211,0,0,0-2.285.873,3.407,3.407,0,0,0-1.254,1.3,3.474,3.474,0,0,0-.381,1.6,3.565,3.565,0,0,0,.333,1.555,3.722,3.722,0,0,0,1.238,1.349,12.2,12.2,0,0,0,2.523,1.3q1.619.651,4.221,1.412a33.765,33.765,0,0,1,4.761,1.73,12.287,12.287,0,0,1,3.142,2.015,6.5,6.5,0,0,1,1.73,2.507A8.995,8.995,0,0,1,101.785-8.7ZM137.9,0H132.38V-20.344A9.08,9.08,0,0,0,131-25.851a4.658,4.658,0,0,0-3.951-1.825,6.955,6.955,0,0,0-2.079.3,7.23,7.23,0,0,0-2.015,1.047,17.32,17.32,0,0,0-2.285,2.015q-1.238,1.27-2.856,3.174V0H112.29V-44.846h5.522v12.981l-.19,5.015a21.6,21.6,0,0,1,2.555-2.618,14.228,14.228,0,0,1,2.507-1.73,10,10,0,0,1,2.555-.952,12.548,12.548,0,0,1,2.7-.286,9.375,9.375,0,0,1,7.363,2.9q2.6,2.9,2.6,8.744Z" transform="translate(1265 100)" fill="#707070"/></g></svg>